<svg id="Layer_1" data-name="Layer 1" xmlns="http://www.w3.org/2000/svg" viewBox="0 0 547.46 283.03"><defs><style>.cls-1{opacity:0.41;}.cls-10,.cls-11,.cls-14,.cls-2,.cls-4{fill:#fff;}.cls-15,.cls-2,.cls-8{stroke:#010101;}.cls-10,.cls-11,.cls-12,.cls-13,.cls-14,.cls-15,.cls-2,.cls-8{stroke-miterlimit:10;}.cls-10,.cls-12,.cls-14,.cls-2,.cls-8{stroke-width:0.25px;}.cls-3{fill:#010101;}.cls-5{fill:#231f20;}.cls-6{fill:#ed2224;}.cls-7{fill:#040303;}.cls-12,.cls-13,.cls-8,.cls-9{fill:none;}.cls-10,.cls-11,.cls-13{stroke:#040303;}.cls-11,.cls-13,.cls-15{stroke-width:0.5px;}.cls-12{stroke:#231f20;}.cls-14{stroke:#000;}.cls-15{fill:#c02626;}</style></defs><g class="cls-1"><polygon class="cls-2" points="512.33 148.67 470.57 125.75 471.17 132.76 512.33 154.29 512.33 148.67"/><polygon class="cls-2" points="512.33 157.33 470.57 134.41 471.17 141.42 512.33 162.95 512.33 157.33"/><polygon class="cls-2" points="512.33 166.76 469.56 143.28 470.16 150.3 512.33 172.35 512.33 166.76"/><polygon class="cls-3" points="492.53 155.9 498.06 158.8 498.13 155.52 492.59 152.62 492.53 155.9"/><polygon class="cls-3" points="493.51 147.03 498.39 149.72 498.25 146.93 493.51 144.33 493.51 147.03"/><polygon class="cls-3" points="507.33 164.01 512.33 166.76 512.33 162.95 507.51 160.43 507.33 164.01"/><polygon class="cls-3" points="507.77 154.88 512.33 157.38 512.33 154.35 507.81 152.03 507.77 154.88"/><polygon class="cls-4" points="466.39 123.09 470.16 150.3 274.63 42.34 273.85 14.73 466.39 123.09"/><path class="cls-5" d="M490,399.22l3.31,23.86.47,3.34.18-.14-5.81-3.2-15.76-8.71-23.05-12.72L421.57,386.3l-30-16.56-29.66-16.38-26.61-14.69-21.06-11.62-12.94-7.15c-.87-.48-1.73-1-2.63-1.45a.78.78,0,0,1-.2-.11s0,.14,0-.12c0-1.47-.08-2.93-.13-4.4l-.45-16.13-.17-5.81a6,6,0,0,0,0-1c.08.38-.28-.06-.11.13a2.91,2.91,0,0,0,.73.41l1.45.82,4.92,2.77,16.73,9.41,23.75,13.37,28.15,15.84,29.94,16.85,29.12,16.39,25.68,14.45,19.63,11.05,11,6.16,1.41.8c.14.08.27-.14.13-.22l-5.16-2.9-14-7.89-20.74-11.67L425,362.37l-27.71-15.6L369.4,331.08l-26-14.64-22-12.4-15.85-8.93c-2.5-1.4-5-2.82-7.5-4.22l-.32-.18a.13.13,0,0,0-.19.11l.76,26.63c0,.37-.09.86.16,1.13a3.11,3.11,0,0,0,.78.43l4,2.2,16.23,9,24.52,13.54,29.94,16.53L406,378l31,17.11,27.09,15,19.88,11,9.52,5.26.41.23a.13.13,0,0,0,.19-.14l-3.31-23.87-.46-3.34C490.26,399,490,399.06,490,399.22Z" transform="translate(-23.77 -276.09)"/><path class="cls-6" d="M473.9,397.18s6.89-1.05,10,5.07a2.9,2.9,0,0,1-4.2-.13s1.35-1.3.45-2.34S478,400,478,400a2.75,2.75,0,0,0,.56,2.81c1.19,1.47,2.86,2.95,6,1.68a2.34,2.34,0,0,1-.26,2.62s-1.06-1.4-1.79-.55a1.82,1.82,0,0,0,.11,2.38c.45.61,1.78.91,2.9-.43s1.48-5.21,0-7.19-2.64-4-8.32-6.16a8,8,0,0,0-4.82,0l-4.49-6.63,22.54,12.65-5.77,12.22Z" transform="translate(-23.77 -276.09)"/><path class="cls-6" d="M457.45,388s-3.22-6.72-9.59-5.92c0,0-.29,3.06,2.54,3.66,0,0,.18-1.95,1.48-1.76s1,2,1,2a2.31,2.31,0,0,1-2.42,1.14c-1.79-.2-3.87-.83-4.74-4.36,0,0-1.31,0-1.81,1.75,0,0,1.66.13,1.45,1.26a1.56,1.56,0,0,1-1.84,1.29c-.72,0-1.71-1-1.37-2.82s3-4.34,5.4-4.15,4.49.05,9.43,3.81a9.39,9.39,0,0,1,2.82,4.26l7.56.13L444.84,375.6l-5.77,12.22Z" transform="translate(-23.77 -276.09)"/><path class="cls-7" d="M477.15,406.6s-6.88,1-10-5.07a2.9,2.9,0,0,1,4.2.13S470,403,470.93,404s2.08-.26,2.08-.26a2.73,2.73,0,0,0-.55-2.81c-1.19-1.48-2.87-2.95-6-1.68a2.35,2.35,0,0,1,.25-2.62s1.06,1.39,1.79.55a1.81,1.81,0,0,0-.1-2.38c-.45-.61-1.79-.91-2.91.42s-1.48,5.22,0,7.2,2.64,4,8.32,6.16a8,8,0,0,0,4.82,0l4.49,6.63-22.54-12.65,5.77-12.22Z" transform="translate(-23.77 -276.09)"/><path class="cls-7" d="M448,390.24s3.22,6.72,9.58,5.91c0,0,.3-3-2.53-3.65,0,0-.18,1.95-1.49,1.76s-1-2-1-2a2.33,2.33,0,0,1,2.43-1.14c1.79.2,3.87.83,4.74,4.36,0,0,1.3,0,1.81-1.75,0,0-1.66-.13-1.45-1.26a1.56,1.56,0,0,1,1.84-1.29c.71,0,1.71,1.05,1.37,2.82s-3,4.34-5.4,4.14-4.49,0-9.43-3.8a9.3,9.3,0,0,1-2.82-4.26l-7.56-.13,22.54,12.65,5.77-12.22Z" transform="translate(-23.77 -276.09)"/><path class="cls-6" d="M428.29,371.59s6.89-1,10,5.06a2.91,2.91,0,0,1-4.21-.12s1.35-1.3.45-2.34-2.09.26-2.09.26a2.75,2.75,0,0,0,.56,2.81c1.19,1.47,2.87,2.95,6,1.68a2.34,2.34,0,0,1-.26,2.62s-1.06-1.4-1.78-.55a1.81,1.81,0,0,0,.1,2.38c.45.61,1.79.91,2.91-.43s1.48-5.21,0-7.2-2.64-3.95-8.32-6.15a8,8,0,0,0-4.83,0L422.29,363l22.55,12.65-5.77,12.22Z" transform="translate(-23.77 -276.09)"/><path class="cls-6" d="M411.84,362.36s-3.22-6.72-9.58-5.92c0,0-.3,3.05,2.53,3.66,0,0,.19-2,1.49-1.76s1,2,1,2a2.31,2.31,0,0,1-2.42,1.15c-1.79-.2-3.87-.84-4.75-4.36,0,0-1.3,0-1.81,1.75,0,0,1.66.13,1.45,1.26a1.55,1.55,0,0,1-1.83,1.29c-.72,0-1.72-1.05-1.38-2.82s3-4.34,5.4-4.15,4.49.05,9.44,3.81a9.39,9.39,0,0,1,2.82,4.26l7.56.13L399.23,350l-5.77,12.22Z" transform="translate(-23.77 -276.09)"/><path class="cls-7" d="M431.55,381s-6.89,1.05-10-5.07a2.9,2.9,0,0,1,4.2.13s-1.35,1.29-.45,2.34,2.09-.26,2.09-.26a2.75,2.75,0,0,0-.56-2.81c-1.19-1.48-2.87-2.95-6-1.68a2.34,2.34,0,0,1,.26-2.62s1.06,1.39,1.78.55a1.81,1.81,0,0,0-.1-2.38c-.45-.61-1.78-.91-2.9.42s-1.48,5.22,0,7.2,2.64,4,8.32,6.16a8,8,0,0,0,4.82,0l4.49,6.63L415,377l5.77-12.22Z" transform="translate(-23.77 -276.09)"/><path class="cls-7" d="M402.4,364.65s3.22,6.72,9.58,5.91c0,0,.29-3.05-2.54-3.65,0,0-.18,1.95-1.48,1.75s-1-2-1-2a2.31,2.31,0,0,1,2.42-1.14c1.79.2,3.87.83,4.74,4.36,0,0,1.31,0,1.82-1.75,0,0-1.66-.13-1.46-1.26a1.58,1.58,0,0,1,1.84-1.3c.72.05,1.72,1.06,1.37,2.83s-3,4.34-5.4,4.14-4.48,0-9.43-3.8a9.39,9.39,0,0,1-2.82-4.26l-7.56-.13L415,377l5.77-12.22Z" transform="translate(-23.77 -276.09)"/><path class="cls-6" d="M382.69,346s6.89-1.05,10,5.06a2.9,2.9,0,0,1-4.2-.12s1.35-1.3.45-2.34-2.09.26-2.09.26a2.75,2.75,0,0,0,.56,2.81c1.19,1.47,2.86,2.95,6,1.68a2.34,2.34,0,0,1-.26,2.62s-1.06-1.4-1.79-.55a1.82,1.82,0,0,0,.11,2.38c.45.61,1.78.91,2.9-.43s1.48-5.21,0-7.2-2.64-3.95-8.32-6.15a8,8,0,0,0-4.82,0l-4.49-6.63L399.23,350l-5.77,12.22Z" transform="translate(-23.77 -276.09)"/><path class="cls-6" d="M366.23,336.77s-3.21-6.72-9.58-5.92c0,0-.29,3,2.54,3.66,0,0,.18-1.95,1.48-1.76s1,2,1,2a2.31,2.31,0,0,1-2.42,1.15c-1.79-.21-3.87-.84-4.74-4.36,0,0-1.31,0-1.81,1.75,0,0,1.66.13,1.45,1.26a1.57,1.57,0,0,1-1.84,1.29c-.72,0-1.72-1-1.37-2.82s3-4.34,5.4-4.15,4.49.05,9.43,3.81a9.39,9.39,0,0,1,2.82,4.26l7.56.13-22.54-12.65-5.77,12.22Z" transform="translate(-23.77 -276.09)"/><path class="cls-7" d="M385.94,355.42s-6.88,1.05-10-5.07a2.9,2.9,0,0,1,4.2.13s-1.35,1.29-.44,2.34,2.08-.26,2.08-.26a2.73,2.73,0,0,0-.55-2.81c-1.19-1.48-2.87-2.95-6-1.68a2.37,2.37,0,0,1,.25-2.63s1.06,1.4,1.79.56a1.82,1.82,0,0,0-.1-2.38c-.45-.61-1.79-.91-2.91.42s-1.48,5.22,0,7.2,2.64,4,8.32,6.16a8,8,0,0,0,4.82,0l4.49,6.62L369.4,351.4l5.77-12.21Z" transform="translate(-23.77 -276.09)"/><path class="cls-7" d="M356.79,339.06s3.22,6.72,9.58,5.91c0,0,.3-3.05-2.53-3.65,0,0-.18,1.95-1.49,1.75s-1-2-1-2a2.33,2.33,0,0,1,2.43-1.14c1.79.2,3.87.83,4.74,4.36,0,0,1.3,0,1.81-1.75,0,0-1.66-.13-1.45-1.27A1.57,1.57,0,0,1,370.7,340c.71,0,1.71,1.06,1.37,2.83s-3,4.34-5.4,4.14-4.49,0-9.43-3.8a9.3,9.3,0,0,1-2.82-4.26l-7.56-.14L369.4,351.4l5.77-12.21Z" transform="translate(-23.77 -276.09)"/><path class="cls-6" d="M337.08,320.41s6.89-1.05,10,5.06a2.91,2.91,0,0,1-4.21-.12s1.35-1.3.45-2.34-2.09.26-2.09.26a2.75,2.75,0,0,0,.56,2.81c1.19,1.47,2.87,2.95,6,1.68a2.34,2.34,0,0,1-.26,2.62s-1.06-1.4-1.78-.55a1.81,1.81,0,0,0,.1,2.38c.45.61,1.78.91,2.91-.43s1.48-5.21,0-7.2-2.64-3.95-8.32-6.15a8,8,0,0,0-4.83,0l-4.49-6.63,22.55,12.65-5.77,12.22Z" transform="translate(-23.77 -276.09)"/><path class="cls-6" d="M320.63,311.18s-3.22-6.72-9.58-5.92c0,0-.3,3.05,2.53,3.66,0,0,.19-1.95,1.49-1.76s1,2,1,2a2.29,2.29,0,0,1-2.42,1.14c-1.79-.2-3.87-.83-4.75-4.35,0,0-1.3,0-1.81,1.75,0,0,1.66.13,1.45,1.26a1.56,1.56,0,0,1-1.83,1.29c-.72,0-1.72-1.05-1.38-2.82s3-4.34,5.4-4.15,4.49.05,9.44,3.8a9.39,9.39,0,0,1,2.82,4.27l7.56.13L308,298.83l-5.77,12.22Z" transform="translate(-23.77 -276.09)"/><path class="cls-7" d="M340.34,329.83s-6.89,1.05-10-5.07a2.9,2.9,0,0,1,4.2.13s-1.35,1.29-.45,2.34,2.09-.26,2.09-.26a2.77,2.77,0,0,0-.56-2.82c-1.19-1.47-2.87-2.94-6-1.67a2.36,2.36,0,0,1,.26-2.63s1.06,1.4,1.78.56a1.81,1.81,0,0,0-.1-2.38c-.45-.61-1.78-.91-2.9.42s-1.48,5.22,0,7.2,2.64,4,8.32,6.16a8,8,0,0,0,4.82,0l4.49,6.62L323.8,325.81l5.76-12.21Z" transform="translate(-23.77 -276.09)"/><path class="cls-7" d="M311.19,313.47s3.22,6.72,9.58,5.91c0,0,.29-3.05-2.54-3.65,0,0-.18,1.95-1.48,1.75s-1-2-1-2a2.31,2.31,0,0,1,2.42-1.14c1.79.2,3.87.83,4.74,4.36,0,0,1.31,0,1.82-1.75,0,0-1.66-.13-1.46-1.27a1.58,1.58,0,0,1,1.84-1.29c.72.05,1.72,1.06,1.37,2.83s-3,4.34-5.4,4.14-4.48,0-9.43-3.8a9.39,9.39,0,0,1-2.82-4.26l-7.56-.14,22.55,12.65,5.76-12.21Z" transform="translate(-23.77 -276.09)"/><rect class="cls-8" x="80.42" y="422.42" width="6.57" height="2.71" transform="translate(-200.69 -196.8) rotate(-25.94)"/><polygon class="cls-3" points="59.46 140.05 53.51 143.51 53.75 140.57 58.58 138.23 59.46 140.05"/><polygon class="cls-9" points="135.72 151.92 91.79 137.76 248.05 52.02 265.9 42.23 265.9 81.95 256.79 82.64 135.72 151.92"/><polygon points="292.1 51 248.05 52.02 256.79 82.64 283.38 82.64 292.1 51"/><polygon points="287.05 85.39 251.98 85.39 256.79 82.64 283.38 82.64 287.05 85.39"/><polygon class="cls-10" points="102.92 141.35 110.44 143.77 251.38 63.68 249.7 57.8 102.92 141.35"/><polygon class="cls-10" points="254.09 73.19 123.72 148.05 116.91 145.86 252.59 67.92 254.09 73.19"/><polygon class="cls-5" points="128.22 117.78 132.16 115.61 168.53 133.91 164.66 136.15 128.22 117.78"/><polygon class="cls-5" points="167.82 96.17 194.9 118.05 198.2 116.16 170.57 93.76 167.82 96.17"/><polygon class="cls-5" points="207.09 74.5 223.88 101.72 226.79 99.8 210.01 73.01 207.09 74.5"/><polygon class="cls-11" points="135.72 151.92 135.72 219.34 91.79 219.34 91.79 137.76 102.92 141.35 135.72 151.92"/><polygon class="cls-12" points="102.92 217.85 111.13 215.95 111.13 143.83 102.92 141.35 102.92 217.85"/><polygon class="cls-12" points="116.91 145.86 116.91 214.93 123.72 213.48 123.72 148.09 116.91 145.86"/><polygon class="cls-12" points="128.22 149.5 128.22 211.85 135.56 210.48 135.72 151.92 128.22 149.5"/><polygon class="cls-13" points="135.72 151.92 135.72 224.83 404.66 225.35 404.66 152.98 286.48 85.39 251.54 85.39 135.72 151.92"/><polygon class="cls-14" points="337.27 219.37 337.27 213.95 280.17 213.95 276.5 210.14 276.5 218.83 337.27 219.37"/><polygon class="cls-14" points="347.28 210.48 349.42 213.95 403.77 213.95 399.64 210.14 347.28 210.48"/><polygon class="cls-14" points="347.28 219.37 347.28 210.48 349.42 213.95 403.77 213.95 403.77 218.83 347.28 219.37"/><polygon class="cls-10" points="70.71 239.63 56.07 243 505.19 243 491.5 239.63 70.71 239.63"/><polygon class="cls-10" points="56.07 243 56.07 246.97 505.19 246.05 505.19 243 56.07 243"/><polygon class="cls-10" points="70.15 235.76 124.39 225.12 444.13 225.35 492.09 234.49 492.53 239.63 69.96 239.63 70.15 235.76"/><polygon class="cls-10" points="48.62 249.72 56.48 246.97 503.63 246.05 515.18 249.72 48.62 249.72"/><rect class="cls-10" x="47.82" y="249.72" width="467.77" height="3.97"/><polygon class="cls-10" points="0.95 266.22 47.82 253.7 515.59 253.7 546.31 265.93 0.95 266.22"/><polygon class="cls-10" points="0.95 282.83 0.95 266.22 547.33 266.22 547.33 282.91 0.95 282.83"/><path class="cls-6" d="M42.2,547.65s-6.06-4.27-11.73-.46a3.29,3.29,0,0,0,4,1.94s-.7-1.79.62-2.25S37,548.12,37,548.12a2.51,2.51,0,0,1-1.79,2.17,5.18,5.18,0,0,1-6.45-1.47,2.15,2.15,0,0,0-.93,2.41s1.63-.7,1.94.38a1.66,1.66,0,0,1-1.16,2c-.7.31-2.1-.08-2.56-1.78s.93-5.26,3.26-6.24,4.27-2.15,10.64-1.3a9.31,9.31,0,0,1,4.58,2.33l7.22-3.57h-27v13.44Z" transform="translate(-23.77 -276.09)"/><path class="cls-6" d="M61.93,547.65s6.05-4.27,11.72-.46a3.29,3.29,0,0,1-4,1.94s.7-1.79-.62-2.25-1.86,1.24-1.86,1.24a2.51,2.51,0,0,0,1.78,2.17,5.18,5.18,0,0,0,6.45-1.47,2.15,2.15,0,0,1,.93,2.41s-1.63-.7-1.94.38a1.67,1.67,0,0,0,1.17,2c.69.31,2.09-.08,2.56-1.78s-.93-5.26-3.26-6.24-4.27-2.15-10.64-1.3a9.27,9.27,0,0,0-4.58,2.33l-7.23-3.57h27v13.44Z" transform="translate(-23.77 -276.09)"/><path class="cls-7" d="M34.9,554.25s6.06,4.28,11.73.47a3.28,3.28,0,0,0-4-1.94s.7,1.78-.62,2.25-1.87-1.24-1.87-1.24a2.52,2.52,0,0,1,1.79-2.18,5.17,5.17,0,0,1,6.44,1.48,2.15,2.15,0,0,0,.94-2.41s-1.63.7-1.94-.39a1.66,1.66,0,0,1,1.16-2c.7-.31,2.1.08,2.56,1.79s-.93,5.25-3.26,6.24-4.27,2.15-10.64,1.29a9.21,9.21,0,0,1-4.58-2.33l-7.22,3.58h27V545.4Z" transform="translate(-23.77 -276.09)"/><path class="cls-7" d="M69.85,554.25s-6.06,4.28-11.73.47a3.28,3.28,0,0,1,4-1.94s-.7,1.78.62,2.25,1.86-1.24,1.86-1.24a2.52,2.52,0,0,0-1.78-2.18,5.18,5.18,0,0,0-6.45,1.48,2.15,2.15,0,0,1-.93-2.41s1.63.7,1.94-.39a1.67,1.67,0,0,0-1.16-2c-.7-.31-2.1.08-2.57,1.79s.94,5.25,3.27,6.24,4.27,2.15,10.63,1.29a9.21,9.21,0,0,0,4.59-2.33l7.22,3.58h-27V545.4Z" transform="translate(-23.77 -276.09)"/><path class="cls-6" d="M96.87,547.65s-6.05-4.27-11.72-.46a3.28,3.28,0,0,0,4,1.94s-.69-1.79.63-2.25,1.86,1.24,1.86,1.24a2.51,2.51,0,0,1-1.79,2.17,5.16,5.16,0,0,1-6.44-1.47,2.14,2.14,0,0,0-.93,2.41s1.63-.7,1.94.38a1.67,1.67,0,0,1-1.17,2c-.7.31-2.09-.08-2.56-1.78s.93-5.26,3.26-6.24,4.27-2.15,10.64-1.3a9.27,9.27,0,0,1,4.58,2.33l7.22-3.57h-27v13.44Z" transform="translate(-23.77 -276.09)"/><path class="cls-6" d="M116.6,547.65s6.06-4.27,11.73-.46a3.29,3.29,0,0,1-4,1.94s.7-1.79-.62-2.25-1.87,1.24-1.87,1.24a2.51,2.51,0,0,0,1.79,2.17,5.16,5.16,0,0,0,6.44-1.47,2.15,2.15,0,0,1,.94,2.41s-1.64-.7-1.95.38a1.67,1.67,0,0,0,1.17,2c.7.31,2.1-.08,2.56-1.78s-.93-5.26-3.26-6.24-4.27-2.15-10.64-1.3a9.31,9.31,0,0,0-4.58,2.33l-7.22-3.57h27v13.44Z" transform="translate(-23.77 -276.09)"/><path class="cls-7" d="M89.57,554.25s6.06,4.28,11.73.47a3.28,3.28,0,0,0-4-1.94s.7,1.78-.62,2.25-1.86-1.24-1.86-1.24a2.52,2.52,0,0,1,1.78-2.18,5.18,5.18,0,0,1,6.45,1.48,2.15,2.15,0,0,0,.93-2.41s-1.63.7-1.94-.39a1.67,1.67,0,0,1,1.16-2c.7-.31,2.1.08,2.57,1.79s-.94,5.25-3.27,6.24-4.27,2.15-10.64,1.29a9.21,9.21,0,0,1-4.58-2.33L80,558.84h27V545.4Z" transform="translate(-23.77 -276.09)"/><path class="cls-7" d="M124.52,554.25s-6.06,4.28-11.73.47a3.28,3.28,0,0,1,4-1.94s-.7,1.78.62,2.25,1.87-1.24,1.87-1.24a2.52,2.52,0,0,0-1.79-2.18,5.18,5.18,0,0,0-6.45,1.48,2.15,2.15,0,0,1-.93-2.41s1.63.7,1.94-.39a1.67,1.67,0,0,0-1.16-2c-.7-.31-2.1.08-2.56,1.79s.93,5.25,3.26,6.24,4.27,2.15,10.64,1.29a9.21,9.21,0,0,0,4.58-2.33l7.22,3.58h-27V545.4Z" transform="translate(-23.77 -276.09)"/><path class="cls-6" d="M151.55,547.65s-6.06-4.27-11.73-.46a3.29,3.29,0,0,0,4,1.94s-.7-1.79.62-2.25,1.86,1.24,1.86,1.24a2.51,2.51,0,0,1-1.78,2.17,5.18,5.18,0,0,1-6.45-1.47,2.15,2.15,0,0,0-.93,2.41s1.63-.7,1.94.38a1.67,1.67,0,0,1-1.16,2c-.7.31-2.1-.08-2.57-1.78s.93-5.26,3.26-6.24,4.28-2.15,10.64-1.3a9.32,9.32,0,0,1,4.59,2.33l7.22-3.57h-27v13.44Z" transform="translate(-23.77 -276.09)"/><path class="cls-6" d="M171.27,547.65s6.06-4.27,11.73-.46a3.29,3.29,0,0,1-4,1.94s.7-1.79-.62-2.25-1.87,1.24-1.87,1.24a2.51,2.51,0,0,0,1.79,2.17,5.18,5.18,0,0,0,6.45-1.47,2.15,2.15,0,0,1,.93,2.41s-1.63-.7-1.94.38a1.66,1.66,0,0,0,1.16,2c.7.31,2.1-.08,2.56-1.78s-.93-5.26-3.26-6.24-4.27-2.15-10.64-1.3a9.31,9.31,0,0,0-4.58,2.33l-7.22-3.57h27v13.44Z" transform="translate(-23.77 -276.09)"/><path class="cls-7" d="M144.25,554.25s6.05,4.28,11.72.47a3.28,3.28,0,0,0-4-1.94s.7,1.78-.62,2.25-1.86-1.24-1.86-1.24a2.52,2.52,0,0,1,1.79-2.18,5.17,5.17,0,0,1,6.44,1.48,2.15,2.15,0,0,0,.93-2.41s-1.63.7-1.94-.39a1.68,1.68,0,0,1,1.17-2c.7-.31,2.09.08,2.56,1.79s-.93,5.25-3.26,6.24-4.27,2.15-10.64,1.29a9.17,9.17,0,0,1-4.58-2.33l-7.23,3.58h27V545.4Z" transform="translate(-23.77 -276.09)"/><path class="cls-7" d="M179.19,554.25s-6.05,4.28-11.72.47a3.27,3.27,0,0,1,4-1.94s-.69,1.78.63,2.25,1.86-1.24,1.86-1.24a2.52,2.52,0,0,0-1.79-2.18,5.17,5.17,0,0,0-6.44,1.48,2.15,2.15,0,0,1-.93-2.41s1.63.7,1.94-.39a1.68,1.68,0,0,0-1.17-2c-.7-.31-2.09.08-2.56,1.79s.93,5.25,3.26,6.24,4.27,2.15,10.64,1.29a9.17,9.17,0,0,0,4.58-2.33l7.23,3.58h-27V545.4Z" transform="translate(-23.77 -276.09)"/><path class="cls-6" d="M206.22,547.65s-6.06-4.27-11.73-.46a3.29,3.29,0,0,0,4,1.94s-.7-1.79.62-2.25,1.87,1.24,1.87,1.24a2.51,2.51,0,0,1-1.79,2.17,5.18,5.18,0,0,1-6.45-1.47,2.15,2.15,0,0,0-.93,2.41s1.63-.7,1.94.38a1.66,1.66,0,0,1-1.16,2c-.7.31-2.1-.08-2.56-1.78s.93-5.26,3.26-6.24,4.27-2.15,10.64-1.3a9.31,9.31,0,0,1,4.58,2.33l7.22-3.57h-27v13.44Z" transform="translate(-23.77 -276.09)"/><path class="cls-6" d="M225.94,547.65s6.06-4.27,11.73-.46a3.29,3.29,0,0,1-4,1.94s.7-1.79-.62-2.25-1.86,1.24-1.86,1.24a2.51,2.51,0,0,0,1.78,2.17,5.18,5.18,0,0,0,6.45-1.47,2.15,2.15,0,0,1,.93,2.41s-1.63-.7-1.94.38a1.67,1.67,0,0,0,1.17,2c.69.31,2.09-.08,2.56-1.78s-.93-5.26-3.26-6.24-4.28-2.15-10.64-1.3a9.32,9.32,0,0,0-4.59,2.33l-7.22-3.57h27v13.44Z" transform="translate(-23.77 -276.09)"/><path class="cls-7" d="M198.92,554.25s6.06,4.28,11.73.47a3.28,3.28,0,0,0-4-1.94s.7,1.78-.62,2.25-1.87-1.24-1.87-1.24a2.52,2.52,0,0,1,1.79-2.18,5.17,5.17,0,0,1,6.44,1.48,2.15,2.15,0,0,0,.94-2.41s-1.63.7-1.95-.39a1.68,1.68,0,0,1,1.17-2c.7-.31,2.1.08,2.56,1.79s-.93,5.25-3.26,6.24-4.27,2.15-10.64,1.29a9.21,9.21,0,0,1-4.58-2.33l-7.22,3.58h27V545.4Z" transform="translate(-23.77 -276.09)"/><path class="cls-7" d="M233.87,554.25s-6.06,4.28-11.73.47a3.28,3.28,0,0,1,4-1.94s-.7,1.78.62,2.25,1.86-1.24,1.86-1.24a2.52,2.52,0,0,0-1.78-2.18,5.18,5.18,0,0,0-6.45,1.48,2.15,2.15,0,0,1-.93-2.41s1.63.7,1.94-.39a1.68,1.68,0,0,0-1.16-2c-.7-.31-2.1.08-2.57,1.79s.93,5.25,3.26,6.24,4.28,2.15,10.64,1.29a9.21,9.21,0,0,0,4.59-2.33l7.22,3.58h-27V545.4Z" transform="translate(-23.77 -276.09)"/><path class="cls-6" d="M260.82,547.82s-6.06-4.27-11.73-.47a3.28,3.28,0,0,0,4,1.94s-.7-1.78.62-2.25,1.87,1.24,1.87,1.24a2.52,2.52,0,0,1-1.79,2.18,5.18,5.18,0,0,1-6.45-1.48,2.15,2.15,0,0,0-.93,2.41s1.63-.7,1.94.39a1.66,1.66,0,0,1-1.16,2c-.7.31-2.1-.08-2.56-1.79s.93-5.25,3.26-6.24,4.27-2.15,10.64-1.29a9.21,9.21,0,0,1,4.58,2.33l7.22-3.57h-27v13.43Z" transform="translate(-23.77 -276.09)"/><path class="cls-6" d="M280.55,547.82s6.05-4.27,11.72-.47a3.28,3.28,0,0,1-4,1.94s.7-1.78-.62-2.25-1.86,1.24-1.86,1.24a2.52,2.52,0,0,0,1.79,2.18A5.17,5.17,0,0,0,294,549a2.15,2.15,0,0,1,.93,2.41s-1.63-.7-1.94.39a1.67,1.67,0,0,0,1.17,2c.7.31,2.09-.08,2.56-1.79s-.93-5.25-3.26-6.24-4.27-2.15-10.64-1.29a9.17,9.17,0,0,0-4.58,2.33L271,543.24h27v13.43Z" transform="translate(-23.77 -276.09)"/><path class="cls-7" d="M253.52,554.42s6.06,4.27,11.73.46a3.29,3.29,0,0,0-4-1.94s.7,1.79-.62,2.26-1.87-1.25-1.87-1.25a2.51,2.51,0,0,1,1.79-2.17,5.18,5.18,0,0,1,6.45,1.47,2.14,2.14,0,0,0,.93-2.4s-1.63.7-1.94-.39a1.66,1.66,0,0,1,1.16-2c.7-.31,2.1.08,2.56,1.79s-.93,5.25-3.26,6.23-4.27,2.15-10.64,1.3a9.21,9.21,0,0,1-4.58-2.33L244,559h27V545.57Z" transform="translate(-23.77 -276.09)"/><path class="cls-7" d="M288.47,554.42s-6.06,4.27-11.73.46a3.29,3.29,0,0,1,4-1.94s-.7,1.79.62,2.26,1.86-1.25,1.86-1.25a2.51,2.51,0,0,0-1.78-2.17,5.18,5.18,0,0,0-6.45,1.47,2.14,2.14,0,0,1-.93-2.4s1.63.7,1.94-.39a1.66,1.66,0,0,0-1.16-2c-.7-.31-2.1.08-2.57,1.79s.94,5.25,3.27,6.23,4.27,2.15,10.64,1.3a9.21,9.21,0,0,0,4.58-2.33L298,559H271V545.57Z" transform="translate(-23.77 -276.09)"/><path class="cls-6" d="M315.49,547.82s-6.05-4.27-11.72-.47a3.27,3.27,0,0,0,4,1.94s-.69-1.78.63-2.25,1.86,1.24,1.86,1.24a2.52,2.52,0,0,1-1.79,2.18,5.17,5.17,0,0,1-6.44-1.48,2.15,2.15,0,0,0-.93,2.41s1.63-.7,1.94.39a1.67,1.67,0,0,1-1.17,2c-.7.31-2.09-.08-2.56-1.79s.93-5.25,3.26-6.24,4.27-2.15,10.64-1.29a9.17,9.17,0,0,1,4.58,2.33l7.23-3.57H298v13.43Z" transform="translate(-23.77 -276.09)"/><path class="cls-6" d="M335.22,547.82s6.06-4.27,11.73-.47a3.28,3.28,0,0,1-4,1.94s.7-1.78-.62-2.25-1.87,1.24-1.87,1.24a2.52,2.52,0,0,0,1.79,2.18,5.17,5.17,0,0,0,6.44-1.48,2.15,2.15,0,0,1,.94,2.41s-1.63-.7-1.95.39a1.67,1.67,0,0,0,1.17,2c.7.31,2.1-.08,2.56-1.79s-.93-5.25-3.26-6.24-4.27-2.15-10.64-1.29a9.21,9.21,0,0,0-4.58,2.33l-7.22-3.57h27v13.43Z" transform="translate(-23.77 -276.09)"/><path class="cls-7" d="M308.19,554.42s6.06,4.27,11.73.46a3.29,3.29,0,0,0-4-1.94s.7,1.79-.62,2.26S313.4,554,313.4,554a2.51,2.51,0,0,1,1.78-2.17,5.18,5.18,0,0,1,6.45,1.47,2.14,2.14,0,0,0,.93-2.4s-1.63.7-1.94-.39a1.66,1.66,0,0,1,1.16-2c.7-.31,2.1.08,2.57,1.79s-.94,5.25-3.27,6.23-4.27,2.15-10.63,1.3a9.21,9.21,0,0,1-4.59-2.33L298.64,559h27V545.57Z" transform="translate(-23.77 -276.09)"/><path class="cls-7" d="M343.14,554.42s-6.06,4.27-11.73.46a3.29,3.29,0,0,1,4-1.94s-.7,1.79.62,2.26,1.87-1.25,1.87-1.25a2.51,2.51,0,0,0-1.79-2.17,5.16,5.16,0,0,0-6.44,1.47,2.14,2.14,0,0,1-.94-2.4s1.63.7,1.94-.39a1.66,1.66,0,0,0-1.16-2c-.7-.31-2.1.08-2.56,1.79s.93,5.25,3.26,6.23,4.27,2.15,10.64,1.3a9.21,9.21,0,0,0,4.58-2.33l7.22,3.57h-27V545.57Z" transform="translate(-23.77 -276.09)"/><path class="cls-6" d="M370.17,547.82s-6.06-4.27-11.73-.47a3.28,3.28,0,0,0,4,1.94s-.7-1.78.62-2.25,1.86,1.24,1.86,1.24a2.52,2.52,0,0,1-1.78,2.18,5.18,5.18,0,0,1-6.45-1.48,2.15,2.15,0,0,0-.93,2.41s1.63-.7,1.94.39a1.67,1.67,0,0,1-1.16,2c-.7.31-2.1-.08-2.57-1.79s.93-5.25,3.26-6.24,4.28-2.15,10.64-1.29a9.21,9.21,0,0,1,4.59,2.33l7.22-3.57h-27v13.43Z" transform="translate(-23.77 -276.09)"/><path class="cls-6" d="M389.89,547.82s6.06-4.27,11.73-.47a3.28,3.28,0,0,1-4,1.94s.7-1.78-.62-2.25-1.86,1.24-1.86,1.24a2.52,2.52,0,0,0,1.78,2.18,5.18,5.18,0,0,0,6.45-1.48,2.15,2.15,0,0,1,.93,2.41s-1.63-.7-1.94.39a1.66,1.66,0,0,0,1.16,2c.7.31,2.1-.08,2.57-1.79s-.94-5.25-3.27-6.24-4.27-2.15-10.64-1.29a9.21,9.21,0,0,0-4.58,2.33l-7.22-3.57h27v13.43Z" transform="translate(-23.77 -276.09)"/><path class="cls-7" d="M362.87,554.42s6.05,4.27,11.72.46a3.28,3.28,0,0,0-4-1.94s.7,1.79-.62,2.26-1.86-1.25-1.86-1.25a2.51,2.51,0,0,1,1.79-2.17,5.17,5.17,0,0,1,6.44,1.47,2.14,2.14,0,0,0,.93-2.4s-1.63.7-1.94-.39a1.67,1.67,0,0,1,1.17-2c.7-.31,2.09.08,2.56,1.79s-.93,5.25-3.26,6.23-4.27,2.15-10.64,1.3a9.17,9.17,0,0,1-4.58-2.33L353.31,559h27V545.57Z" transform="translate(-23.77 -276.09)"/><path class="cls-7" d="M397.81,554.42s-6.05,4.27-11.72.46a3.28,3.28,0,0,1,4-1.94s-.7,1.79.62,2.26,1.86-1.25,1.86-1.25a2.51,2.51,0,0,0-1.79-2.17,5.17,5.17,0,0,0-6.44,1.47,2.14,2.14,0,0,1-.93-2.4s1.63.7,1.94-.39a1.67,1.67,0,0,0-1.17-2c-.7-.31-2.09.08-2.56,1.79s.93,5.25,3.26,6.23,4.27,2.15,10.64,1.3a9.17,9.17,0,0,0,4.58-2.33l7.23,3.57h-27V545.57Z" transform="translate(-23.77 -276.09)"/><path class="cls-6" d="M424.84,547.82s-6.06-4.27-11.73-.47a3.28,3.28,0,0,0,4,1.94s-.7-1.78.62-2.25,1.87,1.24,1.87,1.24a2.52,2.52,0,0,1-1.79,2.18A5.18,5.18,0,0,1,411.4,549a2.15,2.15,0,0,0-.93,2.41s1.63-.7,1.94.39a1.66,1.66,0,0,1-1.16,2c-.7.31-2.1-.08-2.56-1.79s.93-5.25,3.26-6.24,4.27-2.15,10.64-1.29a9.21,9.21,0,0,1,4.58,2.33l7.22-3.57h-27v13.43Z" transform="translate(-23.77 -276.09)"/><path class="cls-6" d="M444.57,547.82s6.05-4.27,11.72-.47a3.28,3.28,0,0,1-4,1.94s.7-1.78-.62-2.25-1.86,1.24-1.86,1.24a2.52,2.52,0,0,0,1.78,2.18A5.18,5.18,0,0,0,458,549a2.15,2.15,0,0,1,.93,2.41s-1.63-.7-1.94.39a1.67,1.67,0,0,0,1.17,2c.69.31,2.09-.08,2.56-1.79s-.93-5.25-3.26-6.24-4.27-2.15-10.64-1.29a9.17,9.17,0,0,0-4.58,2.33L435,543.24h27v13.43Z" transform="translate(-23.77 -276.09)"/><path class="cls-7" d="M417.54,554.42s6.06,4.27,11.73.46a3.29,3.29,0,0,0-4-1.94s.7,1.79-.62,2.26-1.87-1.25-1.87-1.25a2.51,2.51,0,0,1,1.79-2.17,5.16,5.16,0,0,1,6.44,1.47,2.14,2.14,0,0,0,.94-2.4s-1.63.7-1.94-.39a1.66,1.66,0,0,1,1.16-2c.7-.31,2.1.08,2.56,1.79s-.93,5.25-3.26,6.23-4.27,2.15-10.64,1.3a9.21,9.21,0,0,1-4.58-2.33L408,559h27V545.57Z" transform="translate(-23.77 -276.09)"/><path class="cls-7" d="M452.49,554.42s-6.06,4.27-11.73.46a3.29,3.29,0,0,1,4-1.94s-.7,1.79.62,2.26,1.86-1.25,1.86-1.25a2.51,2.51,0,0,0-1.78-2.17,5.18,5.18,0,0,0-6.45,1.47,2.14,2.14,0,0,1-.93-2.4s1.63.7,1.94-.39a1.67,1.67,0,0,0-1.16-2c-.7-.31-2.1.08-2.57,1.79s.94,5.25,3.26,6.23,4.28,2.15,10.64,1.3a9.21,9.21,0,0,0,4.59-2.33L462,559H435V545.57Z" transform="translate(-23.77 -276.09)"/><path class="cls-6" d="M479.08,547.82s-6.06-4.27-11.73-.47a3.28,3.28,0,0,0,4,1.94s-.7-1.78.62-2.25,1.87,1.24,1.87,1.24a2.52,2.52,0,0,1-1.79,2.18,5.18,5.18,0,0,1-6.45-1.48,2.15,2.15,0,0,0-.93,2.41s1.63-.7,1.94.39a1.66,1.66,0,0,1-1.16,2c-.7.31-2.1-.08-2.56-1.79s.93-5.25,3.26-6.24,4.27-2.15,10.64-1.29a9.21,9.21,0,0,1,4.58,2.33l7.22-3.57h-27v13.43Z" transform="translate(-23.77 -276.09)"/><path class="cls-6" d="M498.8,547.82s6.06-4.27,11.73-.47a3.28,3.28,0,0,1-4,1.94s.7-1.78-.62-2.25-1.86,1.24-1.86,1.24a2.52,2.52,0,0,0,1.78,2.18,5.18,5.18,0,0,0,6.45-1.48,2.15,2.15,0,0,1,.93,2.41s-1.63-.7-1.94.39a1.67,1.67,0,0,0,1.16,2c.7.31,2.1-.08,2.57-1.79s-.93-5.25-3.26-6.24-4.28-2.15-10.64-1.29a9.21,9.21,0,0,0-4.59,2.33l-7.22-3.57h27v13.43Z" transform="translate(-23.77 -276.09)"/><path class="cls-7" d="M471.78,554.42s6.06,4.27,11.73.46a3.29,3.29,0,0,0-4-1.94s.7,1.79-.62,2.26S477,554,477,554a2.51,2.51,0,0,1,1.79-2.17,5.16,5.16,0,0,1,6.44,1.47,2.14,2.14,0,0,0,.94-2.4s-1.64.7-1.95-.39a1.67,1.67,0,0,1,1.17-2c.7-.31,2.1.08,2.56,1.79s-.93,5.25-3.26,6.23-4.27,2.15-10.64,1.3a9.21,9.21,0,0,1-4.58-2.33L462.23,559h27V545.57Z" transform="translate(-23.77 -276.09)"/><path class="cls-7" d="M506.73,554.42s-6.06,4.27-11.73.46a3.29,3.29,0,0,1,4-1.94s-.7,1.79.62,2.26,1.86-1.25,1.86-1.25a2.51,2.51,0,0,0-1.78-2.17,5.18,5.18,0,0,0-6.45,1.47,2.14,2.14,0,0,1-.93-2.4s1.63.7,1.94-.39a1.67,1.67,0,0,0-1.16-2c-.7-.31-2.1.08-2.57,1.79s.93,5.25,3.26,6.23,4.28,2.15,10.64,1.3a9.21,9.21,0,0,0,4.59-2.33l7.22,3.57h-27V545.57Z" transform="translate(-23.77 -276.09)"/><path class="cls-6" d="M533.75,547.82s-6.06-4.27-11.73-.47a3.28,3.28,0,0,0,4,1.94s-.7-1.78.62-2.25,1.87,1.24,1.87,1.24a2.52,2.52,0,0,1-1.79,2.18,5.17,5.17,0,0,1-6.44-1.48,2.15,2.15,0,0,0-.94,2.41s1.64-.7,2,.39a1.67,1.67,0,0,1-1.17,2c-.7.31-2.1-.08-2.56-1.79s.93-5.25,3.26-6.24,4.27-2.15,10.64-1.29a9.21,9.21,0,0,1,4.58,2.33l7.22-3.57h-27v13.43Z" transform="translate(-23.77 -276.09)"/><path class="cls-6" d="M553.48,547.82s6-4.27,11.72-.47a3.27,3.27,0,0,1-4,1.94s.69-1.78-.63-2.25-1.86,1.24-1.86,1.24a2.52,2.52,0,0,0,1.79,2.18,5.17,5.17,0,0,0,6.44-1.48,2.14,2.14,0,0,1,.93,2.41s-1.63-.7-1.94.39a1.67,1.67,0,0,0,1.17,2c.7.31,2.09-.08,2.56-1.79s-.93-5.25-3.26-6.24-4.27-2.15-10.64-1.29a9.17,9.17,0,0,0-4.58,2.33l-7.22-3.57h27v13.43Z" transform="translate(-23.77 -276.09)"/><path class="cls-7" d="M526.45,554.42s6.06,4.27,11.73.46a3.29,3.29,0,0,0-4-1.94s.7,1.79-.62,2.26-1.87-1.25-1.87-1.25a2.51,2.51,0,0,1,1.79-2.17,5.18,5.18,0,0,1,6.45,1.47,2.14,2.14,0,0,0,.93-2.4s-1.63.7-1.94-.39a1.66,1.66,0,0,1,1.16-2c.7-.31,2.1.08,2.56,1.79s-.93,5.25-3.26,6.23-4.27,2.15-10.64,1.3a9.21,9.21,0,0,1-4.58-2.33L516.9,559h27V545.57Z" transform="translate(-23.77 -276.09)"/><path class="cls-7" d="M561.4,554.42s-6.06,4.27-11.73.46a3.29,3.29,0,0,1,4-1.94s-.7,1.79.62,2.26S556.2,554,556.2,554a2.51,2.51,0,0,0-1.79-2.17,5.18,5.18,0,0,0-6.45,1.47,2.14,2.14,0,0,1-.93-2.4s1.63.7,1.94-.39a1.66,1.66,0,0,0-1.16-2c-.7-.31-2.1.08-2.56,1.79s.93,5.25,3.26,6.23,4.27,2.15,10.64,1.3a9.21,9.21,0,0,0,4.58-2.33L571,559h-27V545.57Z" transform="translate(-23.77 -276.09)"/><polygon class="cls-2" points="28.19 148.56 69.96 125.64 69.36 132.65 28.19 154.18 28.19 148.56"/><polygon class="cls-2" points="28.19 157.22 69.96 134.29 69.36 141.31 28.19 162.84 28.19 157.22"/><polygon class="cls-2" points="28.19 166.65 70.96 143.17 70.36 150.19 28.19 172.24 28.19 166.65"/><polygon class="cls-5" points="47.99 155.78 42.47 158.69 42.39 155.41 47.93 152.51 47.99 155.78"/><polygon class="cls-5" points="47.02 146.91 42.13 149.61 42.27 146.82 47.02 144.22 47.02 146.91"/><polygon class="cls-5" points="33.19 163.9 28.19 166.65 28.19 162.84 33.02 160.31 33.19 163.9"/><polygon class="cls-5" points="32.75 154.77 28.19 157.27 28.19 154.24 32.72 151.92 32.75 154.77"/><polygon class="cls-4" points="74.13 122.98 70.36 150.19 265.9 42.23 266.68 14.62 74.13 122.98"/><path class="cls-5" d="M97.78,399,94.47,422.9,94,426.25a.13.13,0,0,0,.18.14l6.6-3.64L118.48,413l25.65-14.16,30.31-16.74,32.16-17.76,30.75-17L263.41,333,282,322.73l5.41-3,1.57-.87a2.81,2.81,0,0,0,.74-.41c.26-.29.14-.9.16-1.28l.18-6.43.47-16.71.1-3.33a.13.13,0,0,0-.19-.11l-5.16,2.9-14,7.89-20.74,11.68-25.31,14.24-27.71,15.6L169.56,358.6l-26,14.63-22,12.41-15.85,8.92c-2.5,1.41-5,2.8-7.5,4.22l-.32.18c-.14.08,0,.3.13.22l5.83-3.29,15.83-8.9,23.1-13,27.79-15.64,29.87-16.82L229.81,325,256,310.25l20.4-11.49,12-6.76a10.28,10.28,0,0,0,2-1.15c.1-.09-.09-.17-.14-.05a4.85,4.85,0,0,0,0,1.32l-.18,6.16-.45,16-.08,2.61a6.46,6.46,0,0,1,0,1.32c-.06.2.12-.1,0,0a.86.86,0,0,1-.23.13c-.95.43-1.85,1-2.75,1.52l-5.41,3-17.51,9.66L239.37,346l-28.48,15.72L180.77,378.3l-29.16,16.1L126,408.57l-19.57,10.8-10.91,6-1.4.78.18.14,3.31-23.86L98,399.1C98.05,399,97.8,398.88,97.78,399Z" transform="translate(-23.77 -276.09)"/><path class="cls-6" d="M114.17,397.07s-6.89-1.05-10,5.06a2.9,2.9,0,0,0,4.2-.12s-1.35-1.3-.45-2.34,2.09.26,2.09.26a2.75,2.75,0,0,1-.56,2.81c-1.19,1.47-2.87,2.95-6,1.68a2.34,2.34,0,0,0,.26,2.62s1.06-1.4,1.78-.56a1.82,1.82,0,0,1-.1,2.39c-.45.61-1.78.91-2.91-.43s-1.47-5.21.05-7.2,2.64-3.95,8.32-6.15a8,8,0,0,1,4.82,0l4.49-6.63L97.63,401.08l5.76,12.22Z" transform="translate(-23.77 -276.09)"/><path class="cls-6" d="M130.62,387.83s3.22-6.71,9.58-5.91c0,0,.3,3.05-2.53,3.66,0,0-.18-1.95-1.49-1.76s-1,2-1,2a2.33,2.33,0,0,0,2.43,1.14c1.79-.2,3.87-.83,4.74-4.35,0,0,1.3,0,1.81,1.75,0,0-1.66.13-1.45,1.26a1.57,1.57,0,0,0,1.84,1.29c.71,0,1.71-1.05,1.37-2.82s-3-4.34-5.4-4.15-4.49.05-9.43,3.8a9.3,9.3,0,0,0-2.82,4.27l-7.56.13,22.54-12.65L149,387.71Z" transform="translate(-23.77 -276.09)"/><path class="cls-7" d="M110.91,406.49s6.89,1,10-5.07a2.91,2.91,0,0,0-4.21.13s1.35,1.29.45,2.33-2.09-.25-2.09-.25a2.77,2.77,0,0,1,.56-2.82c1.19-1.47,2.87-2.95,6-1.67a2.36,2.36,0,0,0-.26-2.63s-1.06,1.4-1.78.56a1.81,1.81,0,0,1,.1-2.38c.45-.61,1.78-.91,2.91.42s1.48,5.22,0,7.2-2.64,3.95-8.32,6.16a8.08,8.08,0,0,1-4.83,0l-4.49,6.62,22.55-12.65-5.77-12.21Z" transform="translate(-23.77 -276.09)"/><path class="cls-7" d="M140.06,390.13s-3.21,6.72-9.58,5.91c0,0-.29-3.05,2.54-3.65,0,0,.18,1.95,1.48,1.75s1-2,1-2A2.31,2.31,0,0,0,133.1,391c-1.79.2-3.87.83-4.74,4.36,0,0-1.31,0-1.81-1.75,0,0,1.66-.13,1.45-1.27a1.57,1.57,0,0,0-1.84-1.29c-.72.05-1.72,1.06-1.37,2.83s3,4.34,5.4,4.14,4.48,0,9.43-3.8a9.39,9.39,0,0,0,2.82-4.26l7.56-.14-22.54,12.65-5.77-12.21Z" transform="translate(-23.77 -276.09)"/><path class="cls-6" d="M159.77,371.48s-6.88-1.05-10,5.06a2.9,2.9,0,0,0,4.2-.12s-1.35-1.3-.45-2.34,2.09.26,2.09.26a2.73,2.73,0,0,1-.55,2.81c-1.19,1.47-2.87,3-6,1.68a2.35,2.35,0,0,0,.25,2.62s1.06-1.4,1.79-.56a1.82,1.82,0,0,1-.11,2.39c-.44.61-1.78.91-2.9-.43s-1.48-5.21,0-7.2,2.64-3.95,8.32-6.15a8,8,0,0,1,4.82,0l4.49-6.63-22.54,12.65L149,387.71Z" transform="translate(-23.77 -276.09)"/><path class="cls-6" d="M176.23,362.24s3.22-6.71,9.58-5.91c0,0,.29,3.05-2.54,3.66,0,0-.18-1.95-1.48-1.76s-1,2-1,2a2.31,2.31,0,0,0,2.42,1.14c1.79-.2,3.87-.83,4.74-4.36,0,0,1.31,0,1.82,1.76,0,0-1.66.13-1.46,1.26a1.58,1.58,0,0,0,1.84,1.29c.72,0,1.72-1.05,1.37-2.82s-3-4.34-5.4-4.15-4.48,0-9.43,3.8a9.39,9.39,0,0,0-2.82,4.27l-7.56.13,22.55-12.65,5.76,12.22Z" transform="translate(-23.77 -276.09)"/><path class="cls-7" d="M156.52,380.9s6.89,1,10-5.07a2.9,2.9,0,0,0-4.2.13s1.35,1.29.45,2.33-2.09-.25-2.09-.25a2.77,2.77,0,0,1,.56-2.82c1.18-1.47,2.86-3,6-1.67a2.36,2.36,0,0,0-.26-2.63s-1.06,1.4-1.79.56a1.82,1.82,0,0,1,.11-2.38c.45-.61,1.78-.91,2.9.42s1.48,5.22,0,7.2-2.64,3.95-8.32,6.16a8,8,0,0,1-4.82,0l-4.49,6.63,22.54-12.65-5.77-12.21Z" transform="translate(-23.77 -276.09)"/><path class="cls-7" d="M185.67,364.54s-3.22,6.72-9.58,5.91c0,0-.3-3.05,2.53-3.65,0,0,.19,1.95,1.49,1.75s1-2,1-2a2.31,2.31,0,0,0-2.42-1.14c-1.79.2-3.87.83-4.75,4.36,0,0-1.3,0-1.81-1.75,0,0,1.66-.13,1.45-1.27a1.56,1.56,0,0,0-1.83-1.29c-.72.05-1.72,1.05-1.38,2.83s3,4.34,5.4,4.14,4.49,0,9.44-3.8a9.39,9.39,0,0,0,2.82-4.26l7.56-.14-22.55,12.65-5.77-12.21Z" transform="translate(-23.77 -276.09)"/><path class="cls-6" d="M205.38,345.89s-6.89-1.05-10,5.06a2.9,2.9,0,0,0,4.2-.12s-1.35-1.3-.45-2.34,2.09.26,2.09.26a2.75,2.75,0,0,1-.56,2.81c-1.19,1.47-2.87,2.95-6,1.67a2.36,2.36,0,0,0,.26,2.63s1.06-1.4,1.78-.56a1.81,1.81,0,0,1-.1,2.38c-.45.61-1.78.92-2.9-.42s-1.48-5.21,0-7.2,2.64-3.95,8.32-6.16a8,8,0,0,1,4.82,0l4.49-6.63L188.84,349.9l5.76,12.22Z" transform="translate(-23.77 -276.09)"/><path class="cls-6" d="M221.83,336.65s3.22-6.72,9.58-5.91c0,0,.3,3.05-2.53,3.66,0,0-.18-1.95-1.49-1.76s-1,2-1,2a2.33,2.33,0,0,0,2.43,1.14c1.79-.2,3.87-.83,4.74-4.36,0,0,1.3,0,1.81,1.76,0,0-1.66.12-1.45,1.26a1.57,1.57,0,0,0,1.84,1.29c.71-.05,1.71-1.05,1.37-2.82s-3-4.34-5.4-4.15-4.49.05-9.43,3.8a9.3,9.3,0,0,0-2.82,4.27l-7.56.13,22.54-12.65,5.77,12.21Z" transform="translate(-23.77 -276.09)"/><path class="cls-7" d="M202.12,355.31s6.89,1,10-5.07a2.91,2.91,0,0,0-4.21.13s1.35,1.29.45,2.33-2.09-.25-2.09-.25a2.77,2.77,0,0,1,.56-2.82c1.19-1.47,2.87-2.95,6-1.67a2.36,2.36,0,0,0-.26-2.63s-1.06,1.4-1.78.56a1.81,1.81,0,0,1,.1-2.38c.45-.61,1.79-.91,2.91.42s1.48,5.21,0,7.2-2.64,3.95-8.32,6.16a8,8,0,0,1-4.83,0l-4.49,6.63,22.55-12.65-5.77-12.21Z" transform="translate(-23.77 -276.09)"/><path class="cls-7" d="M231.28,339s-3.22,6.72-9.59,5.91c0,0-.29-3.05,2.54-3.66,0,0,.18,2,1.48,1.76s1-2,1-2a2.31,2.31,0,0,0-2.42-1.14c-1.79.2-3.87.83-4.74,4.36,0,0-1.31,0-1.81-1.76,0,0,1.66-.12,1.45-1.26a1.57,1.57,0,0,0-1.84-1.29c-.72.05-1.72,1.05-1.37,2.83s3,4.34,5.4,4.14,4.49,0,9.43-3.8a9.39,9.39,0,0,0,2.82-4.26l7.56-.14-22.54,12.65-5.77-12.21Z" transform="translate(-23.77 -276.09)"/><path class="cls-6" d="M251,320.3s-6.88-1.05-10,5.06a2.91,2.91,0,0,0,4.2-.12s-1.35-1.3-.44-2.34,2.08.26,2.08.26a2.73,2.73,0,0,1-.55,2.81c-1.19,1.47-2.87,2.95-6,1.67a2.37,2.37,0,0,0,.25,2.63s1.06-1.4,1.79-.56a1.82,1.82,0,0,1-.1,2.38c-.45.61-1.79.92-2.91-.42s-1.48-5.21,0-7.2,2.64-4,8.32-6.16a8,8,0,0,1,4.82,0l4.49-6.63-22.54,12.65,5.77,12.21Z" transform="translate(-23.77 -276.09)"/><path class="cls-6" d="M267.44,311.06s3.22-6.72,9.58-5.91c0,0,.29,3.05-2.54,3.66,0,0-.18-2-1.48-1.76s-1,2-1,2a2.31,2.31,0,0,0,2.42,1.14c1.79-.2,3.87-.83,4.75-4.36,0,0,1.3,0,1.81,1.76,0,0-1.66.12-1.46,1.26a1.58,1.58,0,0,0,1.84,1.29c.72-.05,1.72-1.05,1.37-2.82s-3-4.35-5.4-4.15-4.48.05-9.43,3.8a9.39,9.39,0,0,0-2.82,4.27l-7.56.13,22.55-12.65,5.77,12.21Z" transform="translate(-23.77 -276.09)"/><path class="cls-7" d="M247.73,329.71s6.89,1.05,10-5.06a2.91,2.91,0,0,0-4.2.12s1.35,1.3.45,2.34-2.09-.25-2.09-.25a2.77,2.77,0,0,1,.56-2.82c1.19-1.47,2.86-3,6-1.67a2.36,2.36,0,0,0-.26-2.63s-1.06,1.4-1.79.56a1.82,1.82,0,0,1,.11-2.38c.45-.61,1.78-.91,2.9.42s1.48,5.21,0,7.2-2.64,3.95-8.32,6.16a8,8,0,0,1-4.82,0l-4.49,6.63,22.54-12.65-5.77-12.21Z" transform="translate(-23.77 -276.09)"/><path class="cls-7" d="M276.88,313.36s-3.22,6.72-9.58,5.91c0,0-.3-3,2.53-3.66,0,0,.19,2,1.49,1.76s1-2,1-2a2.31,2.31,0,0,0-2.42-1.14c-1.79.2-3.87.83-4.75,4.36,0,0-1.3,0-1.81-1.76,0,0,1.66-.12,1.45-1.26a1.56,1.56,0,0,0-1.83-1.29c-.72.05-1.72,1.05-1.37,2.83s3,4.34,5.39,4.14,4.49,0,9.44-3.8a9.39,9.39,0,0,0,2.82-4.27l7.56-.13L264.27,325.7l-5.77-12.21Z" transform="translate(-23.77 -276.09)"/><polygon class="cls-10" points="91.79 234.49 164.61 234.49 164.61 219.37 91.79 219.34 91.79 234.49"/><path class="cls-2" d="M178.4,486.57v8.87s-37.6-.65-36.68,0S178.4,486.57,178.4,486.57Z" transform="translate(-23.77 -276.09)"/><polygon class="cls-10" points="92.41 219.22 118.71 219.49 153.6 210.48 135.56 210.48 92.41 219.22"/><polygon class="cls-14" points="276.5 210.14 334.29 210.14 337.27 213.95 280.17 213.95 276.5 210.14"/><polygon class="cls-10" points="437.45 141.13 429.93 143.55 288.99 63.45 290.67 57.58 437.45 141.13"/><polygon class="cls-10" points="286.28 72.97 416.65 147.83 423.45 145.63 287.78 67.7 286.28 72.97"/><polygon class="cls-5" points="412.15 117.55 408.2 115.38 371.84 133.68 375.71 135.93 412.15 117.55"/><polygon class="cls-5" points="372.55 95.94 345.47 117.83 342.17 115.94 369.8 93.53 372.55 95.94"/><polygon class="cls-5" points="333.28 74.27 316.48 101.5 313.57 99.58 330.36 72.78 333.28 74.27"/><polygon class="cls-11" points="404.65 151.69 404.65 219.12 448.58 219.12 448.58 137.54 437.45 141.13 404.65 151.69"/><polygon class="cls-12" points="437.45 221.17 429.24 219.18 429.24 143.72 437.45 141.13 437.45 221.17"/><polygon class="cls-12" points="423.45 145.63 423.45 221.17 416.65 219.59 416.65 148.07 423.45 145.63"/><polygon class="cls-12" points="412.15 149.28 412.15 219.84 404.81 218.29 404.65 152.01 412.15 149.28"/><rect class="cls-14" x="276.5" y="218.83" width="172.08" height="15.67"/><path class="cls-4" d="M294.78,312.64s-5.27-.45-5.21-1.77,0-3.23,0-3.23l5.19,2,4.95-1.4.23,2.59A13.93,13.93,0,0,1,294.78,312.64Z" transform="translate(-23.77 -276.09)"/><rect class="cls-2" x="85.12" y="137.77" width="6.66" height="96.73"/><rect class="cls-2" x="448.64" y="137.35" width="6.66" height="96.73"/><rect class="cls-15" x="262.04" y="0.25" width="16.44" height="40.16"/><rect class="cls-15" x="59.46" y="97.07" width="21.83" height="145.93"/><rect class="cls-15" x="455.76" y="97.07" width="21.83" height="145.93"/></g></svg>