<svg id="Layer_1" data-name="Layer 1" xmlns="http://www.w3.org/2000/svg" viewBox="0 0 547.46 675.53"><defs><style>.cls-1{opacity:0.51;}.cls-12,.cls-2,.cls-5,.cls-7{fill:#fff;}.cls-3{fill:#231f20;}.cls-4{fill:#ed2224;}.cls-12,.cls-13,.cls-5{stroke:#040303;}.cls-10,.cls-12,.cls-13,.cls-14,.cls-5,.cls-6,.cls-7{stroke-miterlimit:10;}.cls-13,.cls-14,.cls-5{stroke-width:0.5px;}.cls-10,.cls-11,.cls-13,.cls-6{fill:none;}.cls-6{stroke:#231f20;}.cls-10,.cls-12,.cls-6,.cls-7{stroke-width:0.25px;}.cls-10,.cls-14,.cls-7{stroke:#010101;}.cls-8{fill:#010101;}.cls-9{fill:#040303;}.cls-14{fill:#c02626;}</style></defs><g class="cls-1"><polygon class="cls-2" points="78.71 122.98 74.94 150.19 270.47 42.23 271.26 14.62 78.71 122.98"/><path class="cls-3" d="M97.78,149.08l-3.31,23.86L94,176.29c0,.1.08.2.18.14l6.6-3.64L118.48,163l25.65-14.16,30.31-16.73,32.16-17.76,30.75-17L263.41,83,282,72.77l5.41-3,1.57-.87a2.81,2.81,0,0,0,.74-.41c.26-.29.14-.9.16-1.28L290,60.8l.47-16.71.1-3.34a.13.13,0,0,0-.19-.11l-5.16,2.9-14,7.9L250.47,63.11,225.16,77.35,197.45,93l-27.89,15.69-26,14.64-22,12.4-15.85,8.92c-2.5,1.41-5,2.8-7.5,4.23l-.32.17c-.14.08,0,.3.13.22l5.83-3.28L119.63,137l23.1-13,27.79-15.64,29.87-16.81L229.81,75,256,60.29l20.4-11.48,12-6.77a10.28,10.28,0,0,0,2-1.15c.1-.09-.09-.17-.14,0a4.85,4.85,0,0,0,0,1.32l-.18,6.16-.45,16L289.58,67a6.44,6.44,0,0,1,0,1.32c-.06.2.12-.1,0,0a.65.65,0,0,1-.23.13c-.95.43-1.85,1-2.75,1.52l-5.41,3-17.51,9.67L239.37,96l-28.48,15.73-30.12,16.62-29.16,16.11L126,158.61l-19.57,10.8-10.91,6-1.4.77.18.15,3.31-23.87.46-3.34C98.05,149,97.8,148.92,97.78,149.08Z" transform="translate(-19.19 -26.14)"/><polygon class="cls-2" points="470.97 123.09 474.74 150.3 279.21 42.34 278.42 14.73 470.97 123.09"/><path class="cls-3" d="M490,149.26l3.31,23.86.47,3.35.18-.14-5.81-3.21-15.76-8.7-23.05-12.73-27.81-15.35-30-16.55-29.66-16.38L335.32,88.72,314.26,77.09l-12.94-7.15c-.87-.47-1.73-1-2.63-1.45a.56.56,0,0,1-.2-.11s0,.14,0-.12c0-1.47-.08-2.93-.13-4.4l-.45-16.13-.17-5.81a6,6,0,0,0,0-1c.08.38-.28-.06-.11.14a3.71,3.71,0,0,0,.73.41l1.45.81L304.73,45l16.73,9.42,23.75,13.36,28.15,15.84,29.94,16.86,29.12,16.38,25.68,14.45,19.63,11.05,11,6.17,1.41.79c.14.08.27-.13.13-.21l-5.16-2.9-14-7.9-20.74-11.67L425,112.41l-27.71-15.6L369.4,81.12l-26-14.64-22-12.4L305.5,45.16c-2.5-1.41-5-2.83-7.5-4.22l-.32-.18a.13.13,0,0,0-.19.1l.76,26.63c0,.38-.09.86.16,1.13a3.11,3.11,0,0,0,.78.43l4,2.2,16.23,9,24.52,13.54,29.94,16.53L406,128l31,17.11,27.09,15,19.88,11,9.52,5.25.41.23a.13.13,0,0,0,.19-.14l-3.31-23.86-.46-3.35C490.26,149,490,149.1,490,149.26Z" transform="translate(-19.19 -26.14)"/><polygon class="cls-4" points="260.85 22.62 274.09 16.32 288.83 22.74 282.06 37.07 267.62 36.96 260.85 22.62"/><polygon class="cls-5" points="410.19 151.69 410.19 624.65 454.12 624.65 454.12 138.02 410.19 151.69"/><path class="cls-6" d="M462.18,167.26V646.84L454,645.23l.69-475.55" transform="translate(-19.19 -26.14)"/><polygon class="cls-6" points="428.99 145.63 428.99 626.26 422.18 616.22 422.18 147.83 428.99 145.63"/><polygon class="cls-6" points="417.69 149.27 417.69 626.26 410.34 615.78 410.19 151.69 417.69 149.27"/><polygon class="cls-7" points="454.12 622.89 463.08 624.65 460.78 138.02 454.12 138.02 454.12 622.89"/><polygon class="cls-7" points="516.91 148.67 475.14 125.75 475.75 132.76 516.91 154.29 516.91 148.67"/><polygon class="cls-7" points="516.91 157.33 475.14 134.41 475.75 141.42 516.91 162.95 516.91 157.33"/><polygon class="cls-7" points="516.91 166.76 474.14 143.28 474.74 150.3 516.91 172.35 516.91 166.76"/><polygon class="cls-8" points="497.11 155.9 502.63 158.8 502.71 155.52 497.17 152.62 497.11 155.9"/><polygon class="cls-8" points="498.08 147.03 502.97 149.72 502.83 146.93 498.08 144.33 498.08 147.03"/><polygon class="cls-8" points="511.91 164.01 516.91 166.76 516.91 162.95 512.09 160.43 511.91 164.01"/><polygon class="cls-8" points="512.35 154.88 516.91 157.38 516.91 154.35 512.38 152.03 512.35 154.88"/><path class="cls-4" d="M473.9,147.22s6.89-1.05,10,5.07a2.9,2.9,0,0,1-4.2-.13s1.35-1.29.45-2.34-2.09.26-2.09.26a2.75,2.75,0,0,0,.56,2.81c1.19,1.48,2.86,3,6,1.68a2.36,2.36,0,0,1-.26,2.63s-1.06-1.4-1.79-.56a1.82,1.82,0,0,0,.11,2.38c.45.61,1.78.91,2.9-.42s1.48-5.22,0-7.2-2.64-4-8.32-6.16a8,8,0,0,0-4.82,0l-4.49-6.62,22.54,12.65-5.77,12.21Z" transform="translate(-19.19 -26.14)"/><path class="cls-4" d="M457.45,138s-3.22-6.72-9.59-5.91c0,0-.29,3,2.54,3.65,0,0,.18-1.95,1.48-1.75s1,2,1,2a2.31,2.31,0,0,1-2.42,1.14c-1.79-.2-3.87-.83-4.74-4.36,0,0-1.31,0-1.81,1.75,0,0,1.66.13,1.45,1.26a1.57,1.57,0,0,1-1.84,1.3c-.72,0-1.71-1.06-1.37-2.83s3-4.34,5.4-4.14,4.49,0,9.43,3.8a9.39,9.39,0,0,1,2.82,4.26l7.56.13-22.54-12.65-5.77,12.22Z" transform="translate(-19.19 -26.14)"/><path class="cls-9" d="M477.15,156.64s-6.88,1.05-10-5.06a2.9,2.9,0,0,1,4.2.12S470,153,470.93,154s2.08-.26,2.08-.26a2.73,2.73,0,0,0-.55-2.81c-1.19-1.47-2.87-2.95-6-1.68a2.35,2.35,0,0,1,.25-2.62s1.06,1.4,1.79.55a1.81,1.81,0,0,0-.1-2.38c-.45-.61-1.79-.91-2.91.43s-1.48,5.21,0,7.2,2.64,3.95,8.32,6.15a8,8,0,0,0,4.82,0l4.49,6.63-22.54-12.65,5.77-12.22Z" transform="translate(-19.19 -26.14)"/><path class="cls-9" d="M448,140.28s3.22,6.72,9.58,5.92c0,0,.3-3-2.53-3.66,0,0-.18,2-1.49,1.76s-1-2-1-2a2.33,2.33,0,0,1,2.43-1.15c1.79.21,3.87.84,4.74,4.36,0,0,1.3,0,1.81-1.75,0,0-1.66-.13-1.45-1.26a1.56,1.56,0,0,1,1.84-1.29c.71,0,1.71,1,1.37,2.82s-3,4.34-5.4,4.15-4.49-.05-9.43-3.81a9.3,9.3,0,0,1-2.82-4.26l-7.56-.13,22.54,12.65,5.77-12.22Z" transform="translate(-19.19 -26.14)"/><path class="cls-4" d="M428.29,121.63s6.89-1,10,5.07a2.91,2.91,0,0,1-4.21-.13s1.35-1.29.45-2.34-2.09.26-2.09.26a2.75,2.75,0,0,0,.56,2.81c1.19,1.48,2.87,3,6,1.68a2.36,2.36,0,0,1-.26,2.63s-1.06-1.4-1.78-.56a1.81,1.81,0,0,0,.1,2.38c.45.61,1.79.91,2.91-.42s1.48-5.22,0-7.2-2.64-4-8.32-6.16a8,8,0,0,0-4.83,0L422.29,113l22.55,12.64-5.77,12.22Z" transform="translate(-19.19 -26.14)"/><path class="cls-4" d="M411.84,112.4s-3.22-6.72-9.58-5.91c0,0-.3,3.05,2.53,3.65,0,0,.19-2,1.49-1.75s1,2,1,2a2.31,2.31,0,0,1-2.42,1.14c-1.79-.2-3.87-.83-4.75-4.36,0,0-1.3,0-1.81,1.75,0,0,1.66.13,1.45,1.26a1.55,1.55,0,0,1-1.83,1.29c-.72,0-1.72-1-1.38-2.82s3-4.34,5.4-4.14,4.49,0,9.44,3.8a9.39,9.39,0,0,1,2.82,4.26l7.56.13-22.55-12.65-5.77,12.22Z" transform="translate(-19.19 -26.14)"/><path class="cls-9" d="M431.55,131.05s-6.89,1-10-5.06a2.9,2.9,0,0,1,4.2.12s-1.35,1.3-.45,2.34,2.09-.26,2.09-.26a2.75,2.75,0,0,0-.56-2.81c-1.19-1.47-2.87-2.95-6-1.68a2.34,2.34,0,0,1,.26-2.62s1.06,1.4,1.78.55a1.81,1.81,0,0,0-.1-2.38c-.45-.61-1.78-.91-2.9.43s-1.48,5.21,0,7.2,2.64,4,8.32,6.15a8,8,0,0,0,4.82,0l4.49,6.63L415,127l5.77-12.22Z" transform="translate(-19.19 -26.14)"/><path class="cls-9" d="M402.4,114.69s3.22,6.72,9.58,5.92c0,0,.29-3.06-2.54-3.66,0,0-.18,2-1.48,1.76s-1-2-1-2a2.31,2.31,0,0,1,2.42-1.15c1.79.2,3.87.84,4.74,4.36,0,0,1.31,0,1.82-1.75,0,0-1.66-.13-1.46-1.26a1.56,1.56,0,0,1,1.84-1.29c.72,0,1.72,1,1.37,2.82s-3,4.34-5.4,4.15-4.48,0-9.43-3.81a9.39,9.39,0,0,1-2.82-4.26l-7.56-.13L415,127l5.77-12.22Z" transform="translate(-19.19 -26.14)"/><path class="cls-4" d="M382.69,96s6.89-1.05,10,5.07a2.9,2.9,0,0,1-4.2-.13s1.35-1.3.45-2.34-2.09.26-2.09.26a2.75,2.75,0,0,0,.56,2.81c1.19,1.48,2.86,3,6,1.68a2.34,2.34,0,0,1-.26,2.62s-1.06-1.39-1.79-.55a1.82,1.82,0,0,0,.11,2.38c.45.61,1.78.91,2.9-.42s1.48-5.22,0-7.2-2.64-4-8.32-6.16a8,8,0,0,0-4.82,0l-4.49-6.63,22.54,12.65-5.77,12.22Z" transform="translate(-19.19 -26.14)"/><path class="cls-4" d="M366.23,86.81s-3.21-6.72-9.58-5.91c0,0-.29,3,2.54,3.65,0,0,.18-2,1.48-1.76s1,2,1,2a2.31,2.31,0,0,1-2.42,1.14c-1.79-.2-3.87-.83-4.74-4.36,0,0-1.31,0-1.81,1.75,0,0,1.66.13,1.45,1.26a1.56,1.56,0,0,1-1.84,1.29c-.72,0-1.72-1-1.37-2.82s3-4.34,5.4-4.14,4.49,0,9.43,3.8A9.39,9.39,0,0,1,368.61,87l7.56.13L353.63,74.46l-5.77,12.22Z" transform="translate(-19.19 -26.14)"/><path class="cls-9" d="M385.94,105.46s-6.88,1.05-10-5.06a2.9,2.9,0,0,1,4.2.12s-1.35,1.3-.44,2.34,2.08-.26,2.08-.26a2.73,2.73,0,0,0-.55-2.81c-1.19-1.47-2.87-3-6-1.68a2.35,2.35,0,0,1,.25-2.62s1.06,1.4,1.79.55a1.82,1.82,0,0,0-.1-2.38c-.45-.61-1.79-.91-2.91.43s-1.48,5.21,0,7.19,2.64,4,8.32,6.16a8,8,0,0,0,4.82,0l4.49,6.63L369.4,101.45l5.77-12.22Z" transform="translate(-19.19 -26.14)"/><path class="cls-9" d="M356.79,89.1S360,95.82,366.37,95c0,0,.3-3.06-2.53-3.66,0,0-.18,2-1.49,1.76s-1-2-1-2A2.33,2.33,0,0,1,363.76,90c1.79.2,3.87.83,4.74,4.36,0,0,1.3,0,1.81-1.75,0,0-1.66-.13-1.45-1.26A1.56,1.56,0,0,1,370.7,90c.71,0,1.71,1,1.37,2.82s-3,4.34-5.4,4.15-4.49,0-9.43-3.81a9.3,9.3,0,0,1-2.82-4.26l-7.56-.13,22.54,12.65,5.77-12.22Z" transform="translate(-19.19 -26.14)"/><path class="cls-4" d="M337.08,70.45s6.89-1,10,5.07a2.91,2.91,0,0,1-4.21-.13s1.35-1.3.45-2.34-2.09.26-2.09.26a2.75,2.75,0,0,0,.56,2.81c1.19,1.47,2.87,2.95,6,1.68a2.34,2.34,0,0,1-.26,2.62s-1.06-1.39-1.78-.55a1.81,1.81,0,0,0,.1,2.38c.45.61,1.78.91,2.91-.43s1.48-5.21,0-7.19-2.64-4-8.32-6.16a8,8,0,0,0-4.83,0l-4.49-6.63,22.55,12.65-5.77,12.22Z" transform="translate(-19.19 -26.14)"/><path class="cls-4" d="M320.63,61.22s-3.22-6.72-9.58-5.91c0,0-.3,3,2.53,3.65,0,0,.19-2,1.49-1.76s1,2,1,2a2.31,2.31,0,0,1-2.42,1.14c-1.79-.2-3.87-.83-4.75-4.36,0,0-1.3,0-1.81,1.75,0,0,1.66.13,1.45,1.26a1.55,1.55,0,0,1-1.83,1.29c-.72,0-1.72-1-1.38-2.82s3-4.34,5.4-4.14,4.49,0,9.44,3.8A9.39,9.39,0,0,1,323,61.39l7.56.13L308,48.87l-5.77,12.22Z" transform="translate(-19.19 -26.14)"/><path class="cls-9" d="M340.34,79.87s-6.89,1-10-5.07a2.9,2.9,0,0,1,4.2.13s-1.35,1.3-.45,2.34S336.2,77,336.2,77a2.75,2.75,0,0,0-.56-2.81c-1.19-1.47-2.87-3-6-1.68a2.34,2.34,0,0,1,.26-2.62s1.06,1.4,1.78.55a1.81,1.81,0,0,0-.1-2.38c-.45-.61-1.78-.91-2.9.43s-1.48,5.21,0,7.19,2.64,4,8.32,6.16a8,8,0,0,0,4.82,0l4.49,6.63L323.8,75.86l5.76-12.22Z" transform="translate(-19.19 -26.14)"/><path class="cls-9" d="M311.19,63.51s3.22,6.72,9.58,5.91c0,0,.29-3-2.54-3.65,0,0-.18,2-1.48,1.76s-1-2-1-2a2.31,2.31,0,0,1,2.42-1.14c1.79.2,3.87.83,4.74,4.36,0,0,1.31,0,1.82-1.75,0,0-1.66-.13-1.46-1.26a1.56,1.56,0,0,1,1.84-1.29c.72,0,1.72,1,1.37,2.82s-3,4.34-5.4,4.15-4.48,0-9.43-3.81a9.39,9.39,0,0,1-2.82-4.26l-7.56-.13L323.8,75.86l5.76-12.22Z" transform="translate(-19.19 -26.14)"/><rect class="cls-10" x="80.42" y="172.47" width="6.57" height="2.71" transform="translate(-86.79 27.98) rotate(-25.94)"/><polygon class="cls-8" points="64.04 140.05 58.09 143.51 58.33 140.57 63.16 138.23 64.04 140.05"/><polygon class="cls-11" points="140.29 151.92 96.36 137.76 252.63 52.02 270.47 42.23 270.47 81.95 261.36 82.64 140.29 151.92"/><polygon points="296.68 51 252.63 52.02 261.36 82.64 287.96 82.64 296.68 51"/><polygon points="291.63 85.39 256.55 85.39 261.36 82.64 287.96 82.64 291.63 85.39"/><polygon class="cls-12" points="107.5 141.35 115.02 143.77 255.95 63.68 254.28 57.8 107.5 141.35"/><polygon class="cls-12" points="258.67 73.19 128.3 148.05 121.49 145.86 257.16 67.92 258.67 73.19"/><polygon class="cls-3" points="132.79 117.78 136.74 115.61 173.11 133.91 169.24 136.15 132.79 117.78"/><polygon class="cls-3" points="172.4 96.17 199.47 118.05 202.78 116.16 175.15 93.76 172.4 96.17"/><polygon class="cls-3" points="211.67 74.5 228.46 101.72 231.37 99.8 214.59 73.01 211.67 74.5"/><polygon class="cls-5" points="140.29 151.92 140.29 624.87 96.36 624.87 96.36 138.25 140.29 151.92"/><path class="cls-6" d="M126.69,167.49V647.07l8.21-1.61-.69-475.55" transform="translate(-19.19 -26.14)"/><polygon class="cls-6" points="121.49 145.86 121.49 626.49 128.3 616.44 128.3 148.05 121.49 145.86"/><polygon class="cls-6" points="132.79 149.5 132.79 626.49 140.14 616.01 140.29 151.92 132.79 149.5"/><polygon class="cls-13" points="140.29 151.92 139.96 617.62 409.23 617.62 409.24 152.98 291.06 85.39 256.12 85.39 140.29 151.92"/><polygon class="cls-12" points="70.71 632.13 56.07 635.49 505.19 635.49 491.5 632.13 70.71 632.13"/><polygon class="cls-12" points="56.07 635.49 56.07 639.47 505.19 638.55 505.19 635.49 56.07 635.49"/><polygon class="cls-12" points="70.15 628.26 124.39 617.62 444.13 617.85 492.09 626.99 492.53 632.13 69.96 632.13 70.15 628.26"/><polygon class="cls-12" points="48.62 642.22 56.48 639.47 503.63 638.55 515.18 642.22 48.62 642.22"/><rect class="cls-12" x="47.82" y="642.22" width="467.77" height="3.97"/><polygon class="cls-12" points="0.95 658.72 47.82 646.19 515.59 646.19 546.31 658.42 0.95 658.72"/><polygon class="cls-12" points="0.95 675.32 0.95 658.72 547.33 658.72 547.33 675.4 0.95 675.32"/><path class="cls-4" d="M37.62,690.19s-6.06-4.27-11.72-.46a3.28,3.28,0,0,0,4,1.94s-.7-1.79.62-2.26,1.87,1.25,1.87,1.25a2.51,2.51,0,0,1-1.79,2.17,5.16,5.16,0,0,1-6.44-1.47,2.14,2.14,0,0,0-.94,2.4s1.64-.7,1.95.39a1.67,1.67,0,0,1-1.17,2c-.7.31-2.1-.08-2.56-1.79s.93-5.25,3.26-6.23S29,686,35.37,686.85A9.21,9.21,0,0,1,40,689.18l7.22-3.57h-27V699Z" transform="translate(-19.19 -26.14)"/><path class="cls-4" d="M57.35,690.19s6.06-4.27,11.72-.46a3.28,3.28,0,0,1-4,1.94s.69-1.79-.63-2.26-1.86,1.25-1.86,1.25a2.51,2.51,0,0,0,1.79,2.17,5.16,5.16,0,0,0,6.44-1.47,2.13,2.13,0,0,1,.93,2.4s-1.63-.7-1.94.39a1.67,1.67,0,0,0,1.17,2c.7.31,2.1-.08,2.56-1.79s-.93-5.25-3.26-6.23S66,686,59.6,686.85A9.21,9.21,0,0,0,55,689.18l-7.22-3.57h27V699Z" transform="translate(-19.19 -26.14)"/><path class="cls-9" d="M30.32,696.79s6.06,4.27,11.73.47a3.28,3.28,0,0,0-4-1.94s.7,1.78-.62,2.25-1.87-1.24-1.87-1.24a2.52,2.52,0,0,1,1.79-2.18,5.18,5.18,0,0,1,6.45,1.48,2.15,2.15,0,0,0,.93-2.41s-1.63.7-1.94-.39a1.66,1.66,0,0,1,1.16-2c.7-.31,2.1.08,2.57,1.79s-.94,5.25-3.27,6.24-4.27,2.15-10.64,1.29A9.21,9.21,0,0,1,28,697.8l-7.22,3.57h27V687.94Z" transform="translate(-19.19 -26.14)"/><path class="cls-9" d="M65.27,696.79s-6.06,4.27-11.73.47a3.28,3.28,0,0,1,4-1.94s-.7,1.78.62,2.25,1.87-1.24,1.87-1.24a2.52,2.52,0,0,0-1.79-2.18,5.18,5.18,0,0,0-6.45,1.48,2.15,2.15,0,0,1-.93-2.41s1.63.7,1.94-.39a1.66,1.66,0,0,0-1.16-2c-.7-.31-2.1.08-2.56,1.79s.93,5.25,3.26,6.24S56.65,701,63,700.13a9.21,9.21,0,0,0,4.58-2.33l7.22,3.57h-27V687.94Z" transform="translate(-19.19 -26.14)"/><path class="cls-4" d="M92.29,690.19s-6.05-4.27-11.72-.46a3.29,3.29,0,0,0,4,1.94s-.7-1.79.62-2.26,1.86,1.25,1.86,1.25a2.51,2.51,0,0,1-1.78,2.17,5.18,5.18,0,0,1-6.45-1.47,2.14,2.14,0,0,0-.93,2.4s1.63-.7,1.94.39a1.67,1.67,0,0,1-1.17,2c-.69.31-2.09-.08-2.56-1.79s.93-5.25,3.26-6.23S83.67,686,90,686.85a9.17,9.17,0,0,1,4.58,2.33l7.23-3.57h-27V699Z" transform="translate(-19.19 -26.14)"/><path class="cls-4" d="M112,690.19s6.06-4.27,11.73-.46a3.29,3.29,0,0,1-4,1.94s.7-1.79-.62-2.26-1.87,1.25-1.87,1.25a2.51,2.51,0,0,0,1.79,2.17,5.18,5.18,0,0,0,6.45-1.47,2.14,2.14,0,0,1,.93,2.4s-1.63-.7-1.94.39a1.66,1.66,0,0,0,1.16,2c.7.31,2.1-.08,2.56-1.79s-.93-5.25-3.26-6.23-4.27-2.15-10.64-1.3a9.21,9.21,0,0,0-4.58,2.33l-7.22-3.57h27V699Z" transform="translate(-19.19 -26.14)"/><path class="cls-9" d="M85,696.79s6.06,4.27,11.73.47a3.28,3.28,0,0,0-4-1.94s.7,1.78-.62,2.25-1.86-1.24-1.86-1.24A2.52,2.52,0,0,1,92,694.15a5.18,5.18,0,0,1,6.45,1.48,2.15,2.15,0,0,0,.93-2.41s-1.63.7-1.94-.39a1.67,1.67,0,0,1,1.17-2c.69-.31,2.09.08,2.56,1.79s-.93,5.25-3.26,6.24-4.27,2.15-10.64,1.29a9.21,9.21,0,0,1-4.59-2.33l-7.22,3.57h27V687.94Z" transform="translate(-19.19 -26.14)"/><path class="cls-9" d="M119.94,696.79s-6.06,4.27-11.72.47a3.27,3.27,0,0,1,4-1.94s-.7,1.78.62,2.25,1.87-1.24,1.87-1.24a2.52,2.52,0,0,0-1.79-2.18,5.17,5.17,0,0,0-6.44,1.48,2.15,2.15,0,0,1-.94-2.41s1.64.7,2-.39a1.67,1.67,0,0,0-1.17-2c-.7-.31-2.1.08-2.56,1.79s.93,5.25,3.26,6.24,4.27,2.15,10.64,1.29a9.21,9.21,0,0,0,4.58-2.33l7.22,3.57h-27V687.94Z" transform="translate(-19.19 -26.14)"/><path class="cls-4" d="M147,690.19s-6.06-4.27-11.73-.46a3.29,3.29,0,0,0,4,1.94s-.7-1.79.62-2.26,1.86,1.25,1.86,1.25a2.51,2.51,0,0,1-1.78,2.17,5.18,5.18,0,0,1-6.45-1.47,2.14,2.14,0,0,0-.93,2.4s1.63-.7,1.94.39a1.66,1.66,0,0,1-1.16,2c-.7.31-2.1-.08-2.57-1.79s.94-5.25,3.27-6.23,4.27-2.15,10.64-1.3a9.21,9.21,0,0,1,4.58,2.33l7.22-3.57h-27V699Z" transform="translate(-19.19 -26.14)"/><path class="cls-4" d="M166.69,690.19s6.06-4.27,11.73-.46a3.29,3.29,0,0,1-4,1.94s.7-1.79-.62-2.26-1.86,1.25-1.86,1.25a2.51,2.51,0,0,0,1.78,2.17,5.18,5.18,0,0,0,6.45-1.47,2.14,2.14,0,0,1,.93,2.4s-1.63-.7-1.94.39a1.67,1.67,0,0,0,1.16,2c.7.31,2.1-.08,2.57-1.79s-.93-5.25-3.26-6.23-4.28-2.15-10.64-1.3a9.21,9.21,0,0,0-4.59,2.33l-7.22-3.57h27V699Z" transform="translate(-19.19 -26.14)"/><path class="cls-9" d="M139.67,696.79s6.06,4.27,11.72.47a3.27,3.27,0,0,0-4-1.94s.7,1.78-.63,2.25-1.86-1.24-1.86-1.24a2.52,2.52,0,0,1,1.79-2.18,5.17,5.17,0,0,1,6.44,1.48,2.15,2.15,0,0,0,.94-2.41s-1.64.7-1.95-.39a1.67,1.67,0,0,1,1.17-2c.7-.31,2.1.08,2.56,1.79s-.93,5.25-3.26,6.24-4.27,2.15-10.64,1.29a9.21,9.21,0,0,1-4.58-2.33l-7.22,3.57h27V687.94Z" transform="translate(-19.19 -26.14)"/><path class="cls-9" d="M174.62,696.79s-6.06,4.27-11.73.47a3.28,3.28,0,0,1,4-1.94s-.7,1.78.62,2.25,1.86-1.24,1.86-1.24a2.52,2.52,0,0,0-1.78-2.18,5.18,5.18,0,0,0-6.45,1.48,2.15,2.15,0,0,1-.93-2.41s1.63.7,1.94-.39a1.67,1.67,0,0,0-1.17-2c-.69-.31-2.09.08-2.56,1.79s.93,5.25,3.26,6.24,4.27,2.15,10.64,1.29a9.17,9.17,0,0,0,4.58-2.33l7.23,3.57h-27V687.94Z" transform="translate(-19.19 -26.14)"/><path class="cls-4" d="M201.64,690.19s-6.06-4.27-11.73-.46a3.29,3.29,0,0,0,4,1.94s-.7-1.79.62-2.26,1.87,1.25,1.87,1.25a2.51,2.51,0,0,1-1.79,2.17,5.16,5.16,0,0,1-6.44-1.47,2.14,2.14,0,0,0-.94,2.4s1.63-.7,1.95.39a1.67,1.67,0,0,1-1.17,2c-.7.31-2.1-.08-2.56-1.79s.93-5.25,3.26-6.23,4.27-2.15,10.64-1.3a9.21,9.21,0,0,1,4.58,2.33l7.22-3.57h-27V699Z" transform="translate(-19.19 -26.14)"/><path class="cls-4" d="M221.37,690.19s6-4.27,11.72-.46a3.28,3.28,0,0,1-4,1.94s.69-1.79-.63-2.26-1.86,1.25-1.86,1.25a2.51,2.51,0,0,0,1.79,2.17,5.17,5.17,0,0,0,6.44-1.47,2.14,2.14,0,0,1,.93,2.4s-1.63-.7-1.94.39a1.67,1.67,0,0,0,1.17,2c.7.31,2.09-.08,2.56-1.79s-.93-5.25-3.26-6.23-4.27-2.15-10.64-1.3a9.17,9.17,0,0,0-4.58,2.33l-7.23-3.57h27V699Z" transform="translate(-19.19 -26.14)"/><path class="cls-9" d="M194.34,696.79s6.06,4.27,11.73.47a3.28,3.28,0,0,0-4-1.94s.7,1.78-.62,2.25-1.87-1.24-1.87-1.24a2.52,2.52,0,0,1,1.79-2.18,5.18,5.18,0,0,1,6.45,1.48,2.15,2.15,0,0,0,.93-2.41s-1.63.7-1.94-.39a1.66,1.66,0,0,1,1.16-2c.7-.31,2.1.08,2.56,1.79s-.93,5.25-3.26,6.24S203,701,196.59,700.13A9.21,9.21,0,0,1,192,697.8l-7.22,3.57h27V687.94Z" transform="translate(-19.19 -26.14)"/><path class="cls-9" d="M229.29,696.79s-6.06,4.27-11.73.47a3.28,3.28,0,0,1,4-1.94s-.7,1.78.62,2.25,1.86-1.24,1.86-1.24a2.52,2.52,0,0,0-1.78-2.18,5.18,5.18,0,0,0-6.45,1.48,2.15,2.15,0,0,1-.93-2.41s1.63.7,1.94-.39a1.66,1.66,0,0,0-1.16-2c-.7-.31-2.1.08-2.57,1.79s.94,5.25,3.27,6.24,4.27,2.15,10.64,1.29a9.21,9.21,0,0,0,4.58-2.33l7.22,3.57h-27V687.94Z" transform="translate(-19.19 -26.14)"/><path class="cls-4" d="M256.24,690.36s-6.06-4.28-11.72-.47a3.27,3.27,0,0,0,4,1.94s-.7-1.78.63-2.25,1.86,1.24,1.86,1.24a2.52,2.52,0,0,1-1.79,2.18,5.17,5.17,0,0,1-6.44-1.48,2.14,2.14,0,0,0-.93,2.41s1.63-.7,1.94.39a1.68,1.68,0,0,1-1.17,2c-.7.31-2.1-.08-2.56-1.79s.93-5.25,3.26-6.24,4.27-2.15,10.64-1.29a9.21,9.21,0,0,1,4.58,2.33l7.22-3.58h-27v13.44Z" transform="translate(-19.19 -26.14)"/><path class="cls-4" d="M276,690.36s6.06-4.28,11.72-.47a3.27,3.27,0,0,1-4,1.94s.7-1.78-.62-2.25-1.87,1.24-1.87,1.24A2.52,2.52,0,0,0,283,693a5.17,5.17,0,0,0,6.44-1.48,2.15,2.15,0,0,1,.94,2.41s-1.64-.7-1.95.39a1.68,1.68,0,0,0,1.17,2c.7.31,2.1-.08,2.56-1.79s-.93-5.25-3.26-6.24-4.27-2.15-10.64-1.29a9.21,9.21,0,0,0-4.58,2.33l-7.22-3.58h27v13.44Z" transform="translate(-19.19 -26.14)"/><path class="cls-9" d="M248.94,697s6.06,4.27,11.73.46a3.29,3.29,0,0,0-4-1.94s.7,1.79-.62,2.25-1.86-1.24-1.86-1.24a2.51,2.51,0,0,1,1.78-2.17,5.18,5.18,0,0,1,6.45,1.47,2.15,2.15,0,0,0,.93-2.41s-1.63.7-1.94-.38a1.66,1.66,0,0,1,1.16-2c.7-.31,2.1.08,2.57,1.78s-.94,5.26-3.27,6.24-4.27,2.15-10.64,1.3a9.31,9.31,0,0,1-4.58-2.33l-7.22,3.57h27V688.1Z" transform="translate(-19.19 -26.14)"/><path class="cls-9" d="M283.89,697s-6.06,4.27-11.73.46a3.29,3.29,0,0,1,4-1.94s-.7,1.79.62,2.25,1.87-1.24,1.87-1.24a2.51,2.51,0,0,0-1.79-2.17,5.18,5.18,0,0,0-6.45,1.47,2.15,2.15,0,0,1-.93-2.41s1.63.7,1.94-.38a1.66,1.66,0,0,0-1.16-2c-.7-.31-2.1.08-2.56,1.78S268.67,698,271,699s4.27,2.15,10.64,1.3a9.31,9.31,0,0,0,4.58-2.33l7.22,3.57h-27V688.1Z" transform="translate(-19.19 -26.14)"/><path class="cls-4" d="M310.92,690.36s-6.06-4.28-11.73-.47a3.28,3.28,0,0,0,4,1.94s-.7-1.78.62-2.25,1.86,1.24,1.86,1.24a2.52,2.52,0,0,1-1.78,2.18,5.18,5.18,0,0,1-6.45-1.48,2.15,2.15,0,0,0-.93,2.41s1.63-.7,1.94.39a1.68,1.68,0,0,1-1.17,2c-.69.31-2.09-.08-2.56-1.79s.93-5.25,3.26-6.24,4.28-2.15,10.64-1.29a9.21,9.21,0,0,1,4.59,2.33l7.22-3.58h-27v13.44Z" transform="translate(-19.19 -26.14)"/><path class="cls-4" d="M330.64,690.36s6.06-4.28,11.73-.47a3.28,3.28,0,0,1-4,1.94s.7-1.78-.62-2.25-1.87,1.24-1.87,1.24a2.52,2.52,0,0,0,1.79,2.18,5.18,5.18,0,0,0,6.45-1.48,2.15,2.15,0,0,1,.93,2.41s-1.63-.7-1.94.39a1.67,1.67,0,0,0,1.16,2c.7.31,2.1-.08,2.56-1.79s-.93-5.25-3.26-6.24-4.27-2.15-10.64-1.29a9.21,9.21,0,0,0-4.58,2.33l-7.22-3.58h27v13.44Z" transform="translate(-19.19 -26.14)"/><path class="cls-9" d="M303.62,697s6.05,4.27,11.72.46a3.29,3.29,0,0,0-4-1.94s.7,1.79-.62,2.25-1.86-1.24-1.86-1.24a2.51,2.51,0,0,1,1.78-2.17,5.18,5.18,0,0,1,6.45,1.47,2.15,2.15,0,0,0,.93-2.41s-1.63.7-1.94-.38a1.67,1.67,0,0,1,1.17-2c.69-.31,2.09.08,2.56,1.78s-.93,5.26-3.26,6.24-4.27,2.15-10.64,1.3a9.27,9.27,0,0,1-4.58-2.33l-7.23,3.57h27V688.1Z" transform="translate(-19.19 -26.14)"/><path class="cls-9" d="M338.56,697s-6.05,4.27-11.72.46a3.28,3.28,0,0,1,4-1.94s-.69,1.79.63,2.25,1.86-1.24,1.86-1.24a2.51,2.51,0,0,0-1.79-2.17,5.16,5.16,0,0,0-6.44,1.47,2.14,2.14,0,0,1-.93-2.41s1.63.7,1.94-.38a1.67,1.67,0,0,0-1.17-2c-.7-.31-2.09.08-2.56,1.78s.93,5.26,3.26,6.24,4.27,2.15,10.64,1.3a9.31,9.31,0,0,0,4.58-2.33l7.22,3.57h-27V688.1Z" transform="translate(-19.19 -26.14)"/><path class="cls-4" d="M365.59,690.36s-6.06-4.28-11.73-.47a3.28,3.28,0,0,0,4,1.94s-.7-1.78.62-2.25,1.87,1.24,1.87,1.24A2.52,2.52,0,0,1,358.6,693a5.18,5.18,0,0,1-6.45-1.48,2.15,2.15,0,0,0-.93,2.41s1.63-.7,1.94.39a1.67,1.67,0,0,1-1.16,2c-.7.31-2.1-.08-2.56-1.79s.93-5.25,3.26-6.24,4.27-2.15,10.64-1.29a9.21,9.21,0,0,1,4.58,2.33l7.22-3.58h-27v13.44Z" transform="translate(-19.19 -26.14)"/><path class="cls-4" d="M385.31,690.36s6.06-4.28,11.73-.47a3.28,3.28,0,0,1-4,1.94s.7-1.78-.62-2.25-1.86,1.24-1.86,1.24A2.52,2.52,0,0,0,392.3,693a5.18,5.18,0,0,0,6.45-1.48,2.15,2.15,0,0,1,.93,2.41s-1.63-.7-1.94.39a1.68,1.68,0,0,0,1.16,2c.7.31,2.1-.08,2.57-1.79s-.93-5.25-3.26-6.24-4.28-2.15-10.64-1.29a9.21,9.21,0,0,0-4.59,2.33l-7.22-3.58h27v13.44Z" transform="translate(-19.19 -26.14)"/><path class="cls-9" d="M358.29,697s6.06,4.27,11.73.46a3.29,3.29,0,0,0-4-1.94s.7,1.79-.62,2.25-1.87-1.24-1.87-1.24a2.51,2.51,0,0,1,1.79-2.17,5.16,5.16,0,0,1,6.44,1.47,2.15,2.15,0,0,0,.94-2.41s-1.64.7-2-.38a1.67,1.67,0,0,1,1.17-2c.7-.31,2.1.08,2.56,1.78s-.93,5.26-3.26,6.24-4.27,2.15-10.64,1.3A9.31,9.31,0,0,1,356,698l-7.22,3.57h27V688.1Z" transform="translate(-19.19 -26.14)"/><path class="cls-9" d="M393.24,697s-6.06,4.27-11.73.46a3.29,3.29,0,0,1,4-1.94s-.7,1.79.62,2.25,1.86-1.24,1.86-1.24a2.51,2.51,0,0,0-1.78-2.17,5.18,5.18,0,0,0-6.45,1.47,2.15,2.15,0,0,1-.93-2.41s1.63.7,1.94-.38a1.67,1.67,0,0,0-1.16-2c-.7-.31-2.1.08-2.57,1.78S378,698,380.34,699s4.28,2.15,10.64,1.3a9.32,9.32,0,0,0,4.59-2.33l7.22,3.57h-27V688.1Z" transform="translate(-19.19 -26.14)"/><path class="cls-4" d="M420.26,690.36s-6.06-4.28-11.73-.47a3.28,3.28,0,0,0,4,1.94s-.7-1.78.62-2.25,1.87,1.24,1.87,1.24a2.52,2.52,0,0,1-1.79,2.18,5.17,5.17,0,0,1-6.44-1.48,2.15,2.15,0,0,0-.94,2.41s1.64-.7,1.95.39a1.68,1.68,0,0,1-1.17,2c-.7.31-2.1-.08-2.56-1.79s.93-5.25,3.26-6.24,4.27-2.15,10.64-1.29a9.21,9.21,0,0,1,4.58,2.33l7.22-3.58h-27v13.44Z" transform="translate(-19.19 -26.14)"/><path class="cls-4" d="M440,690.36s6.05-4.28,11.72-.47a3.27,3.27,0,0,1-4,1.94s.69-1.78-.63-2.25-1.86,1.24-1.86,1.24A2.52,2.52,0,0,0,447,693a5.17,5.17,0,0,0,6.44-1.48,2.14,2.14,0,0,1,.93,2.41s-1.63-.7-1.94.39a1.68,1.68,0,0,0,1.17,2c.7.31,2.09-.08,2.56-1.79s-.93-5.25-3.26-6.24-4.27-2.15-10.64-1.29a9.21,9.21,0,0,0-4.58,2.33l-7.22-3.58h27v13.44Z" transform="translate(-19.19 -26.14)"/><path class="cls-9" d="M413,697s6.06,4.27,11.73.46a3.29,3.29,0,0,0-4-1.94s.7,1.79-.62,2.25-1.87-1.24-1.87-1.24a2.51,2.51,0,0,1,1.79-2.17,5.18,5.18,0,0,1,6.45,1.47,2.15,2.15,0,0,0,.93-2.41s-1.63.7-1.94-.38a1.66,1.66,0,0,1,1.16-2c.7-.31,2.1.08,2.56,1.78s-.93,5.26-3.26,6.24-4.27,2.15-10.64,1.3a9.31,9.31,0,0,1-4.58-2.33l-7.22,3.57h27V688.1Z" transform="translate(-19.19 -26.14)"/><path class="cls-9" d="M447.91,697s-6.06,4.27-11.73.46a3.29,3.29,0,0,1,4-1.94s-.7,1.79.62,2.25,1.87-1.24,1.87-1.24a2.51,2.51,0,0,0-1.79-2.17,5.18,5.18,0,0,0-6.45,1.47,2.15,2.15,0,0,1-.93-2.41s1.63.7,1.94-.38a1.66,1.66,0,0,0-1.16-2c-.7-.31-2.1.08-2.56,1.78S432.69,698,435,699s4.27,2.15,10.64,1.3a9.31,9.31,0,0,0,4.58-2.33l7.22,3.57h-27V688.1Z" transform="translate(-19.19 -26.14)"/><path class="cls-4" d="M474.5,690.36s-6.06-4.28-11.73-.47a3.28,3.28,0,0,0,4,1.94s-.7-1.78.62-2.25,1.87,1.24,1.87,1.24a2.52,2.52,0,0,1-1.79,2.18,5.17,5.17,0,0,1-6.44-1.48,2.15,2.15,0,0,0-.94,2.41s1.63-.7,1.94.39a1.66,1.66,0,0,1-1.16,2c-.7.31-2.1-.08-2.56-1.79s.93-5.25,3.26-6.24,4.27-2.15,10.64-1.29a9.21,9.21,0,0,1,4.58,2.33l7.22-3.58H457v13.44Z" transform="translate(-19.19 -26.14)"/><path class="cls-4" d="M494.23,690.36s6-4.28,11.72-.47a3.28,3.28,0,0,1-4,1.94s.7-1.78-.62-2.25-1.86,1.24-1.86,1.24a2.52,2.52,0,0,0,1.79,2.18,5.17,5.17,0,0,0,6.44-1.48,2.15,2.15,0,0,1,.93,2.41s-1.63-.7-1.94.39a1.68,1.68,0,0,0,1.17,2c.7.31,2.09-.08,2.56-1.79s-.93-5.25-3.26-6.24-4.27-2.15-10.64-1.29a9.17,9.17,0,0,0-4.58,2.33l-7.23-3.58h27v13.44Z" transform="translate(-19.19 -26.14)"/><path class="cls-9" d="M467.2,697s6.06,4.27,11.73.46a3.29,3.29,0,0,0-4-1.94s.7,1.79-.62,2.25-1.87-1.24-1.87-1.24a2.51,2.51,0,0,1,1.79-2.17,5.18,5.18,0,0,1,6.45,1.47,2.15,2.15,0,0,0,.93-2.41s-1.63.7-1.94-.38a1.66,1.66,0,0,1,1.16-2c.7-.31,2.1.08,2.56,1.78s-.93,5.26-3.26,6.24-4.27,2.15-10.64,1.3a9.31,9.31,0,0,1-4.58-2.33l-7.22,3.57h27V688.1Z" transform="translate(-19.19 -26.14)"/><path class="cls-9" d="M502.15,697s-6.06,4.27-11.73.46a3.29,3.29,0,0,1,4-1.94s-.7,1.79.62,2.25,1.86-1.24,1.86-1.24a2.51,2.51,0,0,0-1.78-2.17,5.18,5.18,0,0,0-6.45,1.47,2.15,2.15,0,0,1-.93-2.41s1.63.7,1.94-.38a1.66,1.66,0,0,0-1.16-2c-.7-.31-2.1.08-2.57,1.78s.94,5.26,3.27,6.24,4.27,2.15,10.64,1.3a9.31,9.31,0,0,0,4.58-2.33l7.22,3.57h-27V688.1Z" transform="translate(-19.19 -26.14)"/><path class="cls-4" d="M529.17,690.36s-6-4.28-11.72-.47a3.28,3.28,0,0,0,4,1.94s-.7-1.78.62-2.25,1.86,1.24,1.86,1.24a2.52,2.52,0,0,1-1.79,2.18,5.17,5.17,0,0,1-6.44-1.48,2.15,2.15,0,0,0-.93,2.41s1.63-.7,1.94.39a1.68,1.68,0,0,1-1.17,2c-.7.31-2.09-.08-2.56-1.79s.93-5.25,3.26-6.24,4.27-2.15,10.64-1.29a9.17,9.17,0,0,1,4.58,2.33l7.23-3.58h-27v13.44Z" transform="translate(-19.19 -26.14)"/><path class="cls-4" d="M548.9,690.36s6.06-4.28,11.73-.47a3.28,3.28,0,0,1-4,1.94s.7-1.78-.62-2.25-1.87,1.24-1.87,1.24a2.52,2.52,0,0,0,1.79,2.18,5.17,5.17,0,0,0,6.44-1.48,2.15,2.15,0,0,1,.94,2.41s-1.63-.7-1.94.39a1.66,1.66,0,0,0,1.16,2c.7.31,2.1-.08,2.56-1.79s-.93-5.25-3.26-6.24-4.27-2.15-10.64-1.29a9.21,9.21,0,0,0-4.58,2.33l-7.22-3.58h27v13.44Z" transform="translate(-19.19 -26.14)"/><path class="cls-9" d="M521.87,697s6.06,4.27,11.73.46a3.29,3.29,0,0,0-4-1.94s.7,1.79-.62,2.25-1.86-1.24-1.86-1.24a2.51,2.51,0,0,1,1.78-2.17,5.18,5.18,0,0,1,6.45,1.47,2.15,2.15,0,0,0,.93-2.41s-1.63.7-1.94-.38a1.67,1.67,0,0,1,1.16-2c.7-.31,2.1.08,2.57,1.78s-.93,5.26-3.26,6.24-4.28,2.15-10.64,1.3a9.32,9.32,0,0,1-4.59-2.33l-7.22,3.57h27V688.1Z" transform="translate(-19.19 -26.14)"/><path class="cls-9" d="M556.82,697s-6.06,4.27-11.73.46a3.29,3.29,0,0,1,4-1.94s-.7,1.79.62,2.25,1.87-1.24,1.87-1.24a2.51,2.51,0,0,0-1.79-2.17,5.16,5.16,0,0,0-6.44,1.47,2.15,2.15,0,0,1-.94-2.41s1.63.7,1.95-.38a1.67,1.67,0,0,0-1.17-2c-.7-.31-2.1.08-2.56,1.78s.93,5.26,3.26,6.24,4.27,2.15,10.64,1.3a9.31,9.31,0,0,0,4.58-2.33l7.22,3.57h-27V688.1Z" transform="translate(-19.19 -26.14)"/><polygon class="cls-7" points="32.77 148.56 74.53 125.64 73.94 132.65 32.77 154.18 32.77 148.56"/><polygon class="cls-7" points="32.77 157.22 74.53 134.29 73.94 141.31 32.77 162.84 32.77 157.22"/><polygon class="cls-7" points="32.77 166.65 75.54 143.17 74.94 150.19 32.77 172.24 32.77 166.65"/><polygon class="cls-3" points="52.57 155.78 47.05 158.69 46.97 155.41 52.51 152.51 52.57 155.78"/><polygon class="cls-3" points="51.59 146.91 46.71 149.61 46.85 146.82 51.59 144.22 51.59 146.91"/><polygon class="cls-3" points="37.77 163.9 32.77 166.65 32.77 162.84 37.59 160.31 37.77 163.9"/><polygon class="cls-3" points="37.33 154.77 32.77 157.27 32.77 154.24 37.3 151.92 37.33 154.77"/><path class="cls-4" d="M114.17,147.11s-6.89-1.05-10,5.07a2.9,2.9,0,0,0,4.2-.13s-1.35-1.3-.45-2.34S110,150,110,150a2.75,2.75,0,0,1-.56,2.81c-1.19,1.47-2.87,2.95-6,1.68a2.34,2.34,0,0,0,.26,2.62s1.06-1.4,1.78-.55a1.81,1.81,0,0,1-.1,2.38c-.45.61-1.78.91-2.91-.43s-1.47-5.21.05-7.19,2.64-4,8.32-6.16a8,8,0,0,1,4.82,0l4.49-6.63L97.63,151.12l5.76,12.22Z" transform="translate(-19.19 -26.14)"/><path class="cls-4" d="M130.62,137.88s3.22-6.72,9.58-5.91c0,0,.3,3.05-2.53,3.65,0,0-.18-2-1.49-1.76s-1,2-1,2a2.33,2.33,0,0,0,2.43,1.14c1.79-.2,3.87-.83,4.74-4.36,0,0,1.3,0,1.81,1.75,0,0-1.66.13-1.45,1.26a1.56,1.56,0,0,0,1.84,1.29c.71,0,1.71-1,1.37-2.82s-3-4.34-5.4-4.15-4.49.05-9.43,3.81a9.3,9.3,0,0,0-2.82,4.26l-7.56.13,22.54-12.65L149,137.75Z" transform="translate(-19.19 -26.14)"/><path class="cls-9" d="M110.91,156.53s6.89,1.05,10-5.07a2.91,2.91,0,0,0-4.21.13s1.35,1.3.45,2.34-2.09-.26-2.09-.26a2.75,2.75,0,0,1,.56-2.81c1.19-1.47,2.87-3,6-1.68a2.34,2.34,0,0,0-.26-2.62s-1.06,1.4-1.78.55a1.81,1.81,0,0,1,.1-2.38c.45-.61,1.78-.91,2.91.43s1.48,5.21,0,7.19-2.64,4-8.32,6.16a8,8,0,0,1-4.83,0l-4.49,6.63,22.55-12.65-5.77-12.22Z" transform="translate(-19.19 -26.14)"/><path class="cls-9" d="M140.06,140.17s-3.21,6.72-9.58,5.91c0,0-.29-3.05,2.54-3.65,0,0,.18,1.95,1.48,1.76s1-2,1-2A2.31,2.31,0,0,0,133.1,141c-1.79.2-3.87.83-4.74,4.36,0,0-1.31,0-1.81-1.75,0,0,1.66-.13,1.45-1.26a1.56,1.56,0,0,0-1.84-1.29c-.72,0-1.72,1.05-1.37,2.82s3,4.34,5.4,4.14,4.48,0,9.43-3.8a9.39,9.39,0,0,0,2.82-4.26l7.56-.13-22.54,12.65-5.77-12.22Z" transform="translate(-19.19 -26.14)"/><path class="cls-4" d="M159.77,121.52s-6.88-1-10,5.07a2.9,2.9,0,0,0,4.2-.13s-1.35-1.3-.45-2.34,2.09.26,2.09.26a2.73,2.73,0,0,1-.55,2.81c-1.19,1.47-2.87,2.95-6,1.68a2.35,2.35,0,0,0,.25,2.62s1.06-1.4,1.79-.55a1.81,1.81,0,0,1-.11,2.38c-.44.61-1.78.91-2.9-.43s-1.48-5.21,0-7.19,2.64-4,8.32-6.16a8,8,0,0,1,4.82,0l4.49-6.63-22.54,12.65L149,137.75Z" transform="translate(-19.19 -26.14)"/><path class="cls-4" d="M176.23,112.29s3.22-6.72,9.58-5.92c0,0,.29,3.06-2.54,3.66,0,0-.18-2-1.48-1.76s-1,2-1,2a2.31,2.31,0,0,0,2.42,1.14c1.79-.2,3.87-.83,4.74-4.36,0,0,1.31,0,1.82,1.75,0,0-1.66.13-1.46,1.26a1.56,1.56,0,0,0,1.84,1.29c.72,0,1.72-1,1.37-2.82s-3-4.34-5.4-4.15-4.48,0-9.43,3.81a9.39,9.39,0,0,0-2.82,4.26l-7.56.13,22.55-12.65,5.76,12.22Z" transform="translate(-19.19 -26.14)"/><path class="cls-9" d="M156.52,130.94s6.89,1.05,10-5.07a2.9,2.9,0,0,0-4.2.13s1.35,1.3.45,2.34-2.09-.26-2.09-.26a2.75,2.75,0,0,1,.56-2.81c1.18-1.47,2.86-3,6-1.68A2.34,2.34,0,0,0,167,121s-1.06,1.39-1.79.55a1.82,1.82,0,0,1,.11-2.38c.45-.61,1.78-.91,2.9.43s1.48,5.21,0,7.19-2.64,4-8.32,6.16a8,8,0,0,1-4.82,0l-4.49,6.63,22.54-12.65-5.77-12.22Z" transform="translate(-19.19 -26.14)"/><path class="cls-9" d="M185.67,114.58s-3.22,6.72-9.58,5.91c0,0-.3-3,2.53-3.65,0,0,.19,2,1.49,1.76s1-2,1-2a2.31,2.31,0,0,0-2.42-1.14c-1.79.2-3.87.83-4.75,4.36,0,0-1.3,0-1.81-1.75,0,0,1.66-.13,1.45-1.26a1.55,1.55,0,0,0-1.83-1.29c-.72,0-1.72,1-1.38,2.82s3,4.34,5.4,4.14,4.49,0,9.44-3.8a9.39,9.39,0,0,0,2.82-4.26l7.56-.13-22.55,12.65-5.77-12.22Z" transform="translate(-19.19 -26.14)"/><path class="cls-4" d="M205.38,95.93s-6.89-1.05-10,5.06a2.9,2.9,0,0,0,4.2-.12s-1.35-1.3-.45-2.34,2.09.26,2.09.26a2.75,2.75,0,0,1-.56,2.81c-1.19,1.47-2.87,3-6,1.68a2.34,2.34,0,0,0,.26,2.62s1.06-1.4,1.78-.55a1.81,1.81,0,0,1-.1,2.38c-.45.61-1.78.91-2.9-.43s-1.48-5.21,0-7.2,2.64-3.95,8.32-6.15a8,8,0,0,1,4.82,0l4.49-6.63L188.84,99.94l5.76,12.22Z" transform="translate(-19.19 -26.14)"/><path class="cls-4" d="M221.83,86.7s3.22-6.72,9.58-5.92c0,0,.3,3-2.53,3.66,0,0-.18-2-1.49-1.76s-1,2-1,2a2.33,2.33,0,0,0,2.43,1.15c1.79-.2,3.87-.84,4.74-4.36,0,0,1.3,0,1.81,1.75,0,0-1.66.13-1.45,1.26a1.56,1.56,0,0,0,1.84,1.29c.71,0,1.71-1,1.37-2.82s-3-4.34-5.4-4.15-4.49,0-9.43,3.81a9.3,9.3,0,0,0-2.82,4.26L211.9,87l22.54-12.65,5.77,12.22Z" transform="translate(-19.19 -26.14)"/><path class="cls-9" d="M202.12,105.35s6.89,1.05,10-5.07a2.91,2.91,0,0,0-4.21.13s1.35,1.29.45,2.34-2.09-.26-2.09-.26a2.75,2.75,0,0,1,.56-2.81c1.19-1.48,2.87-3,6-1.68a2.34,2.34,0,0,0-.26-2.62s-1.06,1.39-1.78.55a1.81,1.81,0,0,1,.1-2.38c.45-.61,1.79-.91,2.91.42s1.48,5.22,0,7.2-2.64,4-8.32,6.16a8,8,0,0,1-4.83,0L196.12,114l22.55-12.65L212.9,89.12Z" transform="translate(-19.19 -26.14)"/><path class="cls-9" d="M231.28,89s-3.22,6.72-9.59,5.91c0,0-.29-3.05,2.54-3.65,0,0,.18,2,1.48,1.75s1-2,1-2a2.31,2.31,0,0,0-2.42-1.14c-1.79.2-3.87.83-4.74,4.36,0,0-1.31,0-1.81-1.75,0,0,1.66-.13,1.45-1.26a1.57,1.57,0,0,0-1.84-1.3c-.72,0-1.72,1.06-1.37,2.83s3,4.34,5.4,4.14,4.49,0,9.43-3.8a9.39,9.39,0,0,0,2.82-4.26l7.56-.13-22.54,12.65L212.9,89.12Z" transform="translate(-19.19 -26.14)"/><path class="cls-4" d="M251,70.34s-6.88-1-10,5.06a2.9,2.9,0,0,0,4.2-.12s-1.35-1.3-.44-2.34,2.08.26,2.08.26a2.73,2.73,0,0,1-.55,2.81c-1.19,1.47-2.87,2.95-6,1.68a2.35,2.35,0,0,0,.25,2.62s1.06-1.4,1.79-.55a1.82,1.82,0,0,1-.1,2.38c-.45.61-1.79.91-2.91-.43s-1.48-5.21,0-7.2,2.64-4,8.32-6.15a8,8,0,0,1,4.82,0L257,61.7,234.44,74.35l5.77,12.22Z" transform="translate(-19.19 -26.14)"/><path class="cls-4" d="M267.44,61.11s3.22-6.72,9.58-5.92c0,0,.29,3.05-2.54,3.66,0,0-.18-2-1.48-1.76s-1,2-1,2a2.31,2.31,0,0,0,2.42,1.15c1.79-.21,3.87-.84,4.75-4.36,0,0,1.3,0,1.81,1.75,0,0-1.66.13-1.46,1.26a1.57,1.57,0,0,0,1.84,1.29c.72,0,1.72-1,1.37-2.82s-3-4.34-5.4-4.15-4.48,0-9.43,3.81a9.39,9.39,0,0,0-2.82,4.26l-7.56.13,22.55-12.65L285.82,61Z" transform="translate(-19.19 -26.14)"/><path class="cls-9" d="M247.73,79.76s6.89,1,10-5.07a2.9,2.9,0,0,0-4.2.13s1.35,1.29.45,2.34-2.09-.26-2.09-.26a2.75,2.75,0,0,1,.56-2.81c1.19-1.48,2.86-3,6-1.68a2.36,2.36,0,0,0-.26-2.63s-1.06,1.4-1.79.56A1.82,1.82,0,0,1,256.5,68c.45-.61,1.78-.91,2.9.42s1.48,5.22,0,7.2-2.64,4-8.32,6.16a8,8,0,0,1-4.82,0l-4.49,6.62,22.54-12.65L258.5,63.53Z" transform="translate(-19.19 -26.14)"/><path class="cls-9" d="M276.88,63.4s-3.22,6.72-9.58,5.91c0,0-.3-3,2.53-3.65,0,0,.19,2,1.49,1.75s1-2,1-2a2.31,2.31,0,0,0-2.42-1.14c-1.79.2-3.87.83-4.75,4.36,0,0-1.3,0-1.81-1.75,0,0,1.66-.13,1.45-1.26a1.56,1.56,0,0,0-1.83-1.3c-.72.05-1.72,1.06-1.37,2.83s3,4.34,5.39,4.14,4.49,0,9.44-3.8a9.39,9.39,0,0,0,2.82-4.26l7.56-.14L264.27,75.74,258.5,63.53Z" transform="translate(-19.19 -26.14)"/><polygon class="cls-12" points="442.02 141.13 434.51 143.55 293.57 63.45 295.25 57.58 442.02 141.13"/><polygon class="cls-12" points="290.86 72.97 421.23 147.83 428.03 145.63 292.36 67.7 290.86 72.97"/><polygon class="cls-3" points="416.73 117.55 412.78 115.38 376.42 133.68 380.28 135.93 416.73 117.55"/><polygon class="cls-3" points="377.13 95.94 350.05 117.83 346.75 115.94 374.38 93.53 377.13 95.94"/><polygon class="cls-3" points="337.86 74.27 321.06 101.5 318.15 99.58 334.94 72.78 337.86 74.27"/><path class="cls-2" d="M294.78,62.68s-5.27-.45-5.21-1.77,0-3.23,0-3.23l5.19,2,4.95-1.39.23,2.58A13.73,13.73,0,0,1,294.78,62.68Z" transform="translate(-19.19 -26.14)"/><polygon class="cls-7" points="96.36 623.12 87.4 624.87 89.7 138.25 96.36 138.25 96.36 623.12"/><rect class="cls-14" x="266.62" y="0.25" width="16.44" height="41.98"/><rect class="cls-14" x="59.97" y="117.83" width="21.83" height="517.66"/><rect class="cls-14" x="467.27" y="117.83" width="21.83" height="514.3"/></g></svg>